<?xml version="1.0" standalone="no"?>
<!DOCTYPE svg PUBLIC "-//W3C//DTD SVG 1.1//EN" "http://www.w3.org/Graphics/SVG/1.1/DTD/svg11.dtd" >
<svg xmlns="http://www.w3.org/2000/svg">
<metadata>Generated by IcoMoon</metadata>
<defs>
<font id="cloudfuze" horiz-adv-x="1024">
<font-face units-per-em="1024" ascent="960" descent="-64" />
<missing-glyph horiz-adv-x="1024" />
<glyph unicode="&#x20;" horiz-adv-x="512" d="" />
<glyph unicode="&#xe600;" glyph-name="workspace" d="M485.158 551.778l13.035 83.908-6.559 10.57c-0.934 1.464-0.761 3.378 0.414 4.664l17.107 18.483c1.482 1.57 4.188 1.57 5.669 0l17.107-18.483c1.174-1.287 1.349-3.182 0.414-4.664l-6.559-10.57 13.035-83.889c102.932 1.724 165.266 13.469 165.266 25.714 0 59.822-40.665 62.459-85.872 77.238-27.851 9.046-62.374 14.143-54.966 62.132 18.349 16.78 24.737 51.324 24.737 51.324s24.434 12.314 27.243 35.897c2.071 17.982-7.326 26.329-7.326 26.329s0 1.287 0 22.797c0 50.781-43.504 90.772-95.826 90.772-52.351 0-95.854-39.991-95.854-90.772 0-21.509 0-22.797 0-22.797s-9.37-8.347-7.298-26.329c2.792-23.582 27.224-35.897 27.224-35.897s6.411-34.566 24.761-51.324c7.365-47.972-27.135-53.091-54.99-62.132-45.225-14.777-85.872-17.416-85.872-77.238-0.134-12.227 62.18-23.996 165.112-25.741zM297.939 77.261c-27.851 9.069-62.374 14.143-54.99 62.18 18.349 16.78 24.761 51.302 24.761 51.302s24.411 12.272 27.224 35.869c2.071 18.002-7.298 26.349-7.298 26.349s0 1.31 0 22.777c0 50.781-43.504 90.792-95.854 90.792s-95.854-40.014-95.854-90.792c0-21.488 0-22.777 0-22.777s-9.37-8.347-7.298-26.349c2.792-23.582 27.224-35.869 27.224-35.869s6.411-34.543 24.761-51.302c7.365-47.989-27.135-53.111-54.99-62.18-45.225-14.729-85.872-17.416-85.872-77.218 0-12.247 62.308-24.040 165.266-25.761l13.035 83.908-6.559 10.59c-0.934 1.482-0.761 3.359 0.414 4.64l17.107 18.522c1.482 1.524 4.188 1.524 5.669 0l17.107-18.522c1.174-1.287 1.349-3.182 0.414-4.64l-6.559-10.57 13.035-83.889c102.932 1.702 165.266 13.486 165.266 25.741-0.134 59.784-40.799 62.459-85.997 77.198zM938.145 77.261c-27.832 9.069-62.354 14.143-54.966 62.18 18.349 16.78 24.761 51.302 24.761 51.302s24.411 12.272 27.224 35.869c2.071 18.002-7.298 26.349-7.298 26.349s0 1.31 0 22.777c0 50.781-43.504 90.792-95.854 90.792-52.331 0-95.826-40.014-95.826-90.792 0-21.488 0-22.777 0-22.777s-9.396-8.347-7.298-26.349c2.792-23.582 27.224-35.869 27.224-35.869s6.411-34.543 24.761-51.302c7.365-47.989-27.111-53.111-54.99-62.18-45.199-14.758-85.846-17.416-85.846-77.218 0-12.247 62.308-24.040 165.266-25.761l13.055 83.908-6.584 10.57c-0.934 1.482-0.741 3.359 0.414 4.64l17.107 18.522c1.482 1.524 4.188 1.524 5.669 0l17.107-18.522c1.2-1.287 1.349-3.182 0.434-4.64l-6.559-10.57 13.035-83.889c102.932 1.702 165.266 13.486 165.266 25.741-0.221 59.802-40.884 62.486-86.084 77.218zM679.631 160.753c8.079 0 16.082 3.471 21.648 10.161 9.978 11.963 8.347 29.726-3.62 39.652l-157.661 131.222v154.596c0 15.554-12.612 28.166-28.166 28.166s-28.166-12.612-28.166-28.166v-154.596l-157.661-131.222c-11.963-9.92-13.592-27.691-3.643-39.652s27.709-13.568 39.675-3.597l149.8 124.629 149.8-124.629c5.25-4.412 11.607-6.565 17.999-6.565z" />
<glyph unicode="&#xe601;" glyph-name="arrow-up-upload" d="M901.12 448.768l-195.994-0.051 0.051-359.219h-386.662v359.27l-195.635-0.051 389.171 388.301z" />
<glyph unicode="&#xe602;" glyph-name="back" d="M246.579 448h522.24v-245.76h143.36v286.72c0 56.576-45.875 102.4-102.4 102.4h-563.2v102.4l-204.8-174.080 204.8-163.84v92.16z" />
<glyph unicode="&#xe603;" glyph-name="bell" d="M1025.504 160c0 288-256 224-256 448 0 18.56-1.792 34.432-5.056 47.936-16.832 113.024-92.16 203.712-189.76 231.36 0.864 3.936 1.312 8.032 1.312 12.224 0 33.28-28.8 60.512-64 60.512s-64-27.232-64-60.512c0-4.192 0.448-8.256 1.312-12.224-109.472-31.008-190.912-141.312-193.248-273.44-0.032-1.92-0.064-3.872-0.064-5.856 0-224-256-160-256-448 0-76.224 170.592-140 398.976-156.096 21.536-40.416 64.064-67.904 113.024-67.904s91.52 27.52 113.024 67.904c228.384 16.096 398.976 79.84 398.976 156.096 0 0.224-0.032 0.448-0.032 0.672l1.536-0.672zM826.24 105.888c-54.24-14.464-118.144-24.864-186.784-30.656-5.696 65.408-60.576 116.736-127.488 116.736s-121.76-51.328-127.488-116.736c-68.608 5.76-132.544 16.192-186.784 30.656-74.624 19.904-110.304 42.176-123.36 54.112 13.056 11.904 48.736 34.176 123.36 54.112 86.784 23.168 198.368 35.904 314.24 35.904s227.488-12.736 314.24-35.904c74.624-19.904 110.304-42.176 123.36-54.112-13.056-11.904-48.736-34.176-123.36-54.112z" />
<glyph unicode="&#xe604;" glyph-name="cabinet3" d="M704 960h-384l-192-128v-256h768v256l-192 128zM640 640h-64v42.656c0 11.744-9.6 21.344-21.344 21.344h-85.344c-11.744 0-21.344-9.6-21.344-21.344v-42.656h-64v106.656c0 11.744 9.6 21.344 21.344 21.344h213.344c11.744 0 21.344-9.6 21.344-21.344v-106.656zM128 256h768v256h-768v-256zM384 426.656c0 11.744 9.6 21.344 21.344 21.344h213.344c11.744 0 21.344-9.6 21.344-21.344v-106.656h-64v42.656c0 11.744-9.6 21.344-21.344 21.344h-85.344c-11.744 0-21.344-9.6-21.344-21.344v-42.656h-64v106.656zM128-64h768v256h-768v-256zM384 106.656c0 11.744 9.6 21.344 21.344 21.344h213.344c11.744 0 21.344-9.6 21.344-21.344v-106.656h-64v42.656c0 11.744-9.6 21.344-21.344 21.344h-85.344c-11.744 0-21.344-9.6-21.344-21.344v-42.656h-64v106.656z" />
<glyph unicode="&#xe605;" glyph-name="cancel-circle" d="M512 960c-282.784 0-512-229.216-512-512s229.216-512 512-512 512 229.216 512 512-229.216 512-512 512zM768 613.504l-165.504-165.504 165.504-165.504v-90.496h-90.496l-165.504 165.504-165.504-165.504h-90.496v90.496l165.504 165.504-165.504 165.504v90.496h90.496l165.504-165.504 165.504 165.504h90.496v-90.496z" />
<glyph unicode="&#xe606;" glyph-name="check" d="M954.843 636.562q0-22.857-16.018-38.839l-491.447-491.447q-16.018-16.018-38.839-16.018t-38.839 16.018l-284.562 284.562q-16.018 16.018-16.018 38.839t16.018 38.839l77.714 77.714q16.018 16.018 38.839 16.018t38.839-16.018l168.009-168.558 374.857 375.442q16.018 16.018 38.839 16.018t38.839-16.018l77.714-77.714q16.018-15.982 16.018-38.839z" />
<glyph unicode="&#xe607;" glyph-name="checkmark-circle" d="M512 960c-282.784 0-512-229.216-512-512s229.216-512 512-512 512 229.216 512 512-229.216 512-512 512zM416 128l-212 276 94.016 98.016 118.016-150.016 370.016 302.016 46.016-46.016-416-480z" />
<glyph unicode="&#xe608;" glyph-name="circle2" d="M877.714 448q0-119.442-58.843-220.27t-159.707-159.707-220.27-58.843-220.27 58.843-159.707 159.707-58.843 220.27 58.843 220.27 159.707 159.707 220.27 58.843 220.27-58.843 159.707-159.707 58.843-220.27z" />
<glyph unicode="&#xe609;" glyph-name="clock32" d="M512 960c-282.784 0-512-229.216-512-512s229.216-512 512-512 512 229.216 512 512-229.216 512-512 512zM658.752 210.752l-210.752 210.752v282.496h128v-229.504l173.248-173.248-90.528-90.528z" />
<glyph unicode="&#xe60a;" glyph-name="close" d="M1014.656 137.344c0 0 0 0 0 0l-310.656 310.656 310.656 310.656c0 0 0 0 0 0 3.36 3.36 5.76 7.264 7.328 11.424 4.256 11.392 1.824 24.672-7.328 33.824l-146.752 146.752c-9.152 9.152-22.464 11.552-33.824 7.328-4.16-1.536-8.064-3.968-11.424-7.296 0 0 0 0 0 0l-310.656-310.656-310.656 310.656c0 0 0 0 0 0-3.36 3.328-7.264 5.76-11.424 7.296-11.392 4.256-24.672 1.824-33.824-7.328l-146.752-146.752c-9.152-9.152-11.552-22.464-7.328-33.824 1.568-4.16 3.968-8.064 7.328-11.424 0 0 0 0 0 0l310.656-310.656-310.656-310.656c0 0 0 0 0 0-3.328-3.36-5.76-7.264-7.328-11.424-4.256-11.36-1.824-24.672 7.328-33.824l146.752-146.752c9.152-9.152 22.464-11.552 33.824-7.328 4.16 1.568 8.064 3.968 11.424 7.328 0 0 0 0 0 0l310.656 310.656 310.656-310.656c0 0 0 0 0 0 3.36-3.36 7.264-5.76 11.424-7.328 11.392-4.256 24.672-1.824 33.824 7.328l146.752 146.752c9.152 9.152 11.584 22.464 7.328 33.824-1.568 4.16-3.968 8.064-7.328 11.424z" />
<glyph unicode="&#xe60b;" glyph-name="cloud22" d="M1024 302.464c0 82.080-56.672 150.912-132.992 169.472-3.232 128.704-108.448 232.064-237.856 232.064-75.808 0-143.264-35.488-186.848-90.72-24.448 31.584-62.688 51.968-105.696 51.968-73.824 0-133.632-59.872-133.632-133.728 0-6.432 0.48-12.768 1.376-18.944-11.232 2.016-22.752 3.136-34.56 3.136-107.008 0-193.728-86.784-193.728-193.856s86.72-193.856 193.728-193.856h656.256c96.128 0.192 174.016 78.208 174.016 174.432z" />
<glyph unicode="&#xe60c;" glyph-name="cloud-download2" d="M891.008 599.936c-3.232 128.704-108.448 232.064-237.856 232.064-75.808 0-143.264-35.488-186.848-90.72-24.448 31.584-62.688 51.968-105.696 51.968-73.824 0-133.632-59.872-133.632-133.728 0-6.432 0.48-12.768 1.376-18.944-11.232 2.016-22.752 3.136-34.56 3.136-107.008 0-193.728-86.784-193.728-193.856s86.72-193.856 193.728-193.856h99.776l218.496-218.496 218.496 218.496h119.488c96.128 0.192 174.016 78.208 174.016 174.432 0 82.080-56.672 150.912-132.992 169.472zM512 128l-192 192h128v192h128v-192h128l-192-192z" />
<glyph unicode="&#xe60d;" glyph-name="cloud-upload2" d="M892.256 573.504c2.432 11.104 3.744 22.656 3.744 34.496 0 88.352-71.648 160-160 160-14.208 0-28-1.856-41.12-5.344-24.8 77.344-97.28 133.344-182.88 133.344-87.36 0-161.056-58.336-184.32-138.176-22.752 6.624-46.784 10.176-71.68 10.176-141.376 0-256-114.624-256-256s114.624-256 256-256h128v-192h256v192h224c88.352 0 160 71.648 160 160 0 78.72-56.864 144.16-131.744 157.504zM576 320v-192h-128v192h-160l224 224 224-224h-160z" />
<glyph unicode="&#xe60e;" glyph-name="coin" d="M480 896c-265.088 0-480-214.912-480-480s214.912-480 480-480c265.088 0 480 214.912 480 480s-214.912 480-480 480zM480 32c-212.064 0-384 171.936-384 384s171.936 384 384 384c212.064 0 384-171.936 384-384s-171.936-384-384-384zM512 448v128h128v64h-128v64h-64v-64h-128v-256h128v-128h-128v-64h128v-64h64v64h128v256h-128zM448 448h-64v128h64v-128zM576 256h-64v128h64v-128z" />
<glyph unicode="&#xe60f;" glyph-name="comments2" d="M256 512h512v-128h-512zM256 704h512v-128h-512zM960 960h-896c-35.36 0-64-28.608-64-64v-704c0-35.36 28.608-64 64-64h128v-192l288 192h480c35.36 0 64 28.64 64 64v704c0 35.36-28.64 64-64 64zM896 256h-416l-160-96v96h-192v576h768v-576z" />
<glyph unicode="&#xe610;" glyph-name="cross22" d="M819.2 857.6h-614.4c-56.32 0-102.4-46.080-102.4-102.4v-614.4c0-56.32 46.080-102.4 102.4-102.4h614.4c56.32 0 102.4 46.080 102.4 102.4v614.4c0 56.32-46.080 102.4-102.4 102.4zM668.723 202.803l-156.723 156.672-156.723-156.723-88.474 88.525 156.672 156.723-156.672 156.672 88.474 88.525 156.723-156.672 156.672 156.672 88.525-88.474-156.672-156.723 156.723-156.723-88.525-88.474z" />
<glyph unicode="&#xe611;" glyph-name="cross32" d="M512 878.080c-237.568 0-430.080-192.614-430.080-430.080 0-237.568 192.563-430.080 430.080-430.080s430.080 192.563 430.080 430.080c0 237.517-192.563 430.080-430.080 430.080zM600.525 448l156.723-156.723-88.525-88.525-156.723 156.723-156.723-156.723-88.474 88.525 156.672 156.723-156.672 156.672 88.474 88.525 156.723-156.672 156.723 156.672 88.525-88.474-156.723-156.723z" />
<glyph unicode="&#xe612;" glyph-name="dashboard2" d="M219.429 301.714q0 30.281-21.431 51.712t-51.712 21.431-51.712-21.431-21.431-51.712 21.431-51.712 51.712-21.431 51.712 21.431 21.431 51.712zM329.143 557.714q0 30.281-21.431 51.712t-51.712 21.431-51.712-21.431-21.431-51.712 21.431-51.712 51.712-21.431 51.712 21.431 21.431 51.712zM573.696 282.843l57.71 218.295q3.438 14.848-4.279 27.721t-22.016 16.859-27.429-3.73-17.152-22.565l-57.71-218.295q-34.304-2.853-61.147-24.869t-35.986-56.283q-11.447-43.995 11.447-83.419t66.853-50.871 83.419 11.447 50.871 66.853q9.143 34.304-3.438 66.853t-41.143 52.005zM950.857 301.714q0 30.281-21.431 51.712t-51.712 21.431-51.712-21.431-21.431-51.712 21.431-51.712 51.712-21.431 51.712 21.431 21.431 51.712zM585.143 667.429q0 30.281-21.431 51.712t-51.712 21.431-51.712-21.431-21.431-51.712 21.431-51.712 51.712-21.431 51.712 21.431 21.431 51.712zM841.143 557.714q0 30.281-21.431 51.712t-51.712 21.431-51.712-21.431-21.431-51.712 21.431-51.712 51.712-21.431 51.712 21.431 21.431 51.712zM1024 301.714q0-149.138-80.567-276.005-10.862-16.567-30.866-16.567h-801.134q-20.005 0-30.866 16.567-80.567 126.281-80.567 276.005 0 104.009 40.558 198.839t109.129 163.438 163.438 109.129 198.839 40.558 198.839-40.558 163.438-109.129 109.129-163.438 40.558-198.839z" />
<glyph unicode="&#xe613;" glyph-name="download4" d="M883.968 289.44l-30.656-162.304h-682.624l-30.656 162.304h-76.32v-257.984h896.576v257.984h-76.32zM864.64 577.728h-224.704v93.76h-255.808v-93.76h-222.56l349.248-365.184 353.824 365.184zM639.904 832.576h-255.808v-34.112h255.808v34.112zM639.904 768.864h-255.808v-65.216h255.808v65.216z" />
<glyph unicode="&#xe614;" glyph-name="edit3" d="M896-64.992h-768c-70.656 0-128 57.344-128 128v768c0 70.656 57.344 128 128 128h576l-128-128h-384c-35.328 0-64-28.672-64-64v-640c0-35.392 28.672-64 64-64h640c35.392 0 64 28.608 64 64v384l128 128v-576c0-70.656-57.344-128-128-128zM896 831.008l-64 64v64c0 0 192 1.984 192-192h-64l-64 64zM320 255.008v192h64l128-128v-64h-192zM896 703.008l-320-320-128 128 320 320 128-128z" />
<glyph unicode="&#xe615;" glyph-name="email3" d="M896 832h-768c-70.656 0-128-57.344-128-128v-512c0-70.656 57.344-128 128-128h768c70.656 0 128 57.344 128 128v512c0 70.656-57.344 128-128 128zM896 256c0-35.392-28.608-64-64-64h-640c-35.328 0-64 28.608-64 64v384c0 35.392 28.672 64 64 64h640c35.392 0 64-28.608 64-64v-384zM736 608l-224-224-224 224-64-64 96-96-96-96 64-64 96 96 128-96 128 96 96-96 64 64-96 96 96 96-64 64z" />
<glyph unicode="&#xe616;" glyph-name="eye4" d="M512 768c-282.784 0-512-320-512-320s229.216-320 512-320 512 320 512 320-229.216 320-512 320zM512 256c-106.016 0-192 85.984-192 192s85.984 192 192 192 192-85.984 192-192-85.984-192-192-192zM512 576c-70.688 0-128-57.312-128-128s57.312-128 128-128 128 57.312 128 128-57.312 128-128 128z" />
<glyph unicode="&#xe617;" glyph-name="eye8" d="M950.857 411.429q-86.857 134.839-217.71 201.728 34.853-59.429 34.853-128.585 0-105.728-75.154-180.846t-180.846-75.154-180.846 75.154-75.154 180.846q0 69.157 34.853 128.585-130.853-66.853-217.71-201.728 75.995-117.138 190.574-186.587t248.283-69.413 248.283 69.413 190.574 186.587zM539.429 630.857q0 11.447-8.009 19.419t-19.419 8.009q-71.424 0-122.587-51.127t-51.127-122.587q0-11.447 8.009-19.419t19.419-8.009 19.419 8.009 8.009 19.419q0 49.152 34.853 84.005t84.005 34.853q11.447 0 19.419 8.009t8.009 19.419zM1024 411.429q0-19.419-11.447-39.424-80.018-131.438-215.15-210.578t-285.44-79.141-285.44 79.433-215.15 210.286q-11.447 20.005-11.447 39.424t11.447 39.424q80.018 130.853 215.15 210.286t285.44 79.433 285.44-79.433 215.15-210.286q11.447-20.005 11.447-39.424z" />
<glyph unicode="&#xe618;" glyph-name="feed2" d="M384 448c0 70.688 57.312 128 128 128s128-57.312 128-128c0-70.688-57.312-128-128-128s-128 57.312-128 128zM664.352 729.472c99.84-54.144 167.648-159.904 167.648-281.472s-67.808-227.328-167.648-281.472c44.064 70.112 71.648 170.272 71.648 281.472s-27.584 211.36-71.648 281.472zM288 448c0-111.2 27.584-211.36 71.648-281.472-99.84 54.144-167.648 159.904-167.648 281.472s67.808 227.328 167.648 281.472c-44.064-70.112-71.648-170.272-71.648-281.472zM96 448c0-171.904 54.4-326.176 140.64-431.712-142.304 90.944-236.64 250.304-236.64 431.712s94.336 340.768 236.64 431.712c-86.24-105.536-140.64-259.808-140.64-431.712zM787.36 879.712c142.304-90.944 236.64-250.304 236.64-431.712s-94.336-340.768-236.64-431.712c86.24 105.536 140.64 259.808 140.64 431.712s-54.4 326.176-140.64 431.712z" />
<glyph unicode="&#xe619;" glyph-name="file6" d="M192 960c-47.147 0-85.333-38.187-85.333-85.333v-853.333c0-47.147 38.187-85.333 85.333-85.333h640c47.147 0 85.333 38.187 85.333 85.333v641.707c0 28.587-11.285 53.973-29.44 72.32l-193.707 193.28c-19.179 19.413-46.080 31.36-75.52 31.36h-426.667zM490.667 810.667c0 23.467 19.2 42.667 42.667 42.667s42.667-19.2 42.667-42.667v-160c0-17.707 14.293-32 32-32h160c23.467 0 42.667-19.2 42.667-42.667s-19.2-42.667-42.667-42.667h-192c-47.147 0-85.333 38.187-85.333 85.333v192z" />
<glyph unicode="&#xe61a;" glyph-name="file8" d="M298.667 661.333h256v-85.333h-256zM298.667 533.333h384v-42.667h-384zM298.667 448h384v-42.667h-384zM298.667 362.667h384v-42.667h-384zM298.667 277.333h128v-42.667h-128zM701.013 874.667h-573.013v-896h725.333v745.173l-152.32 150.827zM768 688.512v-27.179h-128v128h25.685l102.315-100.821zM213.333 64v725.333h384v-170.667h170.667v-554.667h-554.667z" />
<glyph unicode="&#xe61b;" glyph-name="file-text" horiz-adv-x="731" d="M585.143 173.714v36.571q0 8.009-5.157 13.129t-13.129 5.157h-402.286q-8.009 0-13.129-5.157t-5.157-13.129v-36.571q0-8.009 5.157-13.129t13.129-5.157h402.286q8.009 0 13.129 5.157t5.157 13.129zM585.143 320v36.571q0 8.009-5.157 13.129t-13.129 5.157h-402.286q-8.009 0-13.129-5.157t-5.157-13.129v-36.571q0-8.009 5.157-13.129t13.129-5.157h402.286q8.009 0 13.129 5.157t5.157 13.129zM731.429 521.143v-457.143q0-22.857-16.018-38.839t-38.839-16.018h-621.714q-22.857 0-38.839 16.018t-16.018 38.839v768q0 22.857 16.018 38.839t38.839 16.018h310.857v-310.857q0-22.857 16.018-38.839t38.839-16.018h310.857zM729.71 594.286h-290.853v290.853q46.848-8.558 75.447-37.157l178.286-178.286q28.562-28.562 37.157-75.447z" />
<glyph unicode="&#xe61c;" glyph-name="floppy2" d="M448 245.333c0-29.44 23.893-53.333 53.333-53.333s53.333 23.893 53.333 53.333-23.893 53.333-53.333 53.333-53.333-23.893-53.333-53.333zM85.333 960c-47.147 0-85.333-38.187-85.333-85.333v-853.333c0-47.147 38.187-85.333 85.333-85.333h853.333c47.147 0 85.333 38.187 85.333 85.333v727.040c0 28.587-11.285 53.973-29.44 72.32l-108.373 107.947c-19.179 19.413-46.080 31.36-75.52 31.36h-725.333zM153.6 853.333h59.733v-166.4c0-26.027 20.907-46.933 46.933-46.933h55.467c26.027 0 46.933 20.907 46.933 46.933v166.4h401.067c26.027 0 46.933-20.907 46.933-46.933v-204.8c0-26.027-20.907-46.933-46.933-46.933h-610.133c-26.027 0-46.933 20.907-46.933 46.933v204.8c0 26.027 20.907 46.933 46.933 46.933zM362.667 245.333c0 76.587 62.080 138.667 138.667 138.667s138.667-62.080 138.667-138.667-62.080-138.667-138.667-138.667-138.667 62.080-138.667 138.667z" />
<glyph unicode="&#xe61d;" glyph-name="folder6" horiz-adv-x="951" d="M950.857 612.571v-402.286q0-52.553-37.705-90.295t-90.295-37.705h-694.857q-52.553 0-90.295 37.705t-37.705 90.295v548.571q0 52.553 37.705 90.295t90.295 37.705h182.857q52.553 0 90.295-37.705t37.705-90.295v-18.286h384q52.553 0 90.295-37.705t37.705-90.295z" />
<glyph unicode="&#xe61e;" glyph-name="folder-add2" d="M601.043 848.696v44.522c0 49.152-39.891 89.043-89.043 89.043h-178.087c-49.152 0-89.043-39.891-89.043-89.043v-44.522h-178.087v-133.565h-44.522v-311.653h89.043v222.608h801.392v-534.261h-489.739v-89.043h578.783v845.914h-400.696zM912.696 715.131h-756.869v44.522h178.087v133.565h178.087v-133.565h400.696v-44.522zM244.869 358.957h-133.565v-133.565h-133.565v-133.565h133.565v-133.565h133.565v133.565h133.565v133.565h-133.565z" />
<glyph unicode="&#xe61f;" glyph-name="folder-open" d="M832 0l192 512h-832l-192-512zM128 576l-128-576v832h288l128-128h416v-128z" />
<glyph unicode="&#xe620;" glyph-name="group2" horiz-adv-x="1097" d="M338.871 448q-92.562-2.853-151.442-73.143h-76.581q-46.848 0-78.848 23.15t-32 67.73q0 201.728 70.839 201.728 3.438 0 24.869-11.995t55.698-24.283 67.986-12.288q38.29 0 75.995 13.129-2.853-21.138-2.853-37.705 0-79.433 46.299-146.286zM950.857 84.005q0-68.571-41.728-108.288t-110.848-39.717h-499.419q-69.157 0-110.848 39.717t-41.728 108.288q0 30.281 2.011 59.136t8.009 62.281 15.141 61.989 24.576 55.698 35.438 46.299 48.859 30.574 63.707 11.447q5.705 0 24.576-12.288t41.728-27.429 61.147-27.429 77.129-12.288 77.129 12.288 61.147 27.429 41.728 27.429 24.576 12.288q34.853 0 63.707-11.447t48.859-30.574 35.438-46.299 24.576-55.698 15.141-61.989 8.009-62.281 2.011-59.136zM365.714 813.714q0-60.562-42.862-103.424t-103.424-42.862-103.424 42.862-42.862 103.424 42.862 103.424 103.424 42.862 103.424-42.862 42.862-103.424zM768 594.286q0-90.843-64.293-155.136t-155.136-64.293-155.136 64.293-64.293 155.136 64.293 155.136 155.136 64.293 155.136-64.293 64.293-155.136zM1097.143 465.701q0-44.581-32-67.73t-78.848-23.15h-76.581q-58.843 70.29-151.442 73.143 46.299 66.853 46.299 146.286 0 16.567-2.853 37.705 37.705-13.129 75.995-13.129 33.719 0 67.986 12.288t55.698 24.283 24.869 11.995q70.839 0 70.839-201.728zM1024 813.714q0-60.562-42.862-103.424t-103.424-42.862-103.424 42.862-42.862 103.424 42.862 103.424 103.424 42.862 103.424-42.862 42.862-103.424z" />
<glyph unicode="&#xe621;" glyph-name="heart22" d="M1024 601.856c0-86.368-37.216-164.032-96.48-217.856h0.48l-320-320c-32-32-64-64-96-64s-64 32-96 64l-319.52 320c-59.264 53.824-96.48 131.488-96.48 217.856 0 162.464 131.712 294.144 294.144 294.144 86.368 0 164.032-37.216 217.856-96.48 53.824 59.264 131.488 96.48 217.856 96.48 162.464 0 294.144-131.712 294.144-294.144z" />
<glyph unicode="&#xe622;" glyph-name="heart32" d="M1024 601.856c0 162.464-131.712 294.144-294.144 294.144-86.368 0-164.032-37.216-217.856-96.48-53.824 59.264-131.488 96.48-217.856 96.48-162.464 0-294.144-131.712-294.144-294.144 0-86.368 37.216-164.032 96.48-217.856h-0.48l320-320c32-32 64-64 96-64s64 32 96 64l319.52 320c59.264 53.824 96.48 131.488 96.48 217.856zM841.472 478.752l-323.968-324.256c-1.664-1.664-3.52-3.52-5.504-5.472-1.952 1.952-3.808 3.808-5.504 5.472l-323.968 324.256c-35.168 31.936-54.528 75.648-54.528 123.072 0 91.616 74.528 166.144 166.144 166.144 47.424 0 91.136-19.36 123.072-54.528l94.784-104.384 94.784 104.384c31.936 35.168 75.648 54.528 123.072 54.528 91.616 0 166.144-74.528 166.144-166.144 0-47.424-19.36-91.136-54.528-123.072z" />
<glyph unicode="&#xe623;" glyph-name="info42" d="M505.702 918.989c-260.096-3.482-468.173-217.19-464.691-477.338 3.482-259.994 217.19-468.122 477.286-464.64s468.173 217.19 464.691 477.338c-3.43 260.045-217.19 468.122-477.286 464.64zM557.926 762.010c47.872 0 62.003-27.75 62.003-59.546 0-39.68-31.795-76.39-86.016-76.39-45.363 0-66.918 22.835-65.638 60.518 0 31.795 26.624 75.418 89.651 75.418zM435.149 153.6c-32.717 0-56.678 19.866-33.792 107.213l37.53 154.829c6.502 24.832 7.578 34.765 0 34.765-9.779 0-52.275-17.152-77.414-34.048l-16.333 26.778c79.616 66.458 171.162 105.472 210.381 105.472 32.717 0 38.144-38.707 21.811-98.253l-43.008-162.816c-7.578-28.774-4.301-38.707 3.277-38.707 9.779 0 41.984 11.878 73.626 36.762l18.483-24.832c-77.363-77.363-161.792-107.162-194.56-107.162z" />
<glyph unicode="&#xe624;" glyph-name="list72" d="M819.2 499.2h-614.4c-28.262 0-51.2-22.938-51.2-51.2s22.938-51.2 51.2-51.2h614.4c28.314 0 51.2 22.938 51.2 51.2s-22.886 51.2-51.2 51.2zM204.8 601.6h614.4c28.314 0 51.2 22.938 51.2 51.2s-22.886 51.2-51.2 51.2h-614.4c-28.262 0-51.2-22.938-51.2-51.2s22.938-51.2 51.2-51.2zM819.2 294.4h-614.4c-28.262 0-51.2-22.886-51.2-51.2s22.938-51.2 51.2-51.2h614.4c28.314 0 51.2 22.886 51.2 51.2s-22.886 51.2-51.2 51.2z" />
<glyph unicode="&#xe625;" glyph-name="locked" d="M128-32v512h96v160c0 141.376 114.592 256 256 256h32c141.376 0 256-114.624 256-256v-160h96v-512h-736zM471.808 230.816l-23.808-166.816h96l-23.84 166.816c23.328 9.536 39.84 32.416 39.84 59.2 0 35.328-28.672 64-64 64-35.36 0-64-28.672-64-64 0-26.784 16.48-49.664 39.808-59.2zM672 624c0 97.216-78.816 176-176 176-97.216 0-176-78.784-176-176v-144h352v144z" />
<glyph unicode="&#xe626;" glyph-name="logout" d="M564.275 89.6h-411.699v716.8h411.648v-153.6h101.376v153.6c0 56.32-46.029 102.4-102.4 102.4h-409.6c-56.32 0-102.4-46.080-102.4-102.4v-716.8c0-56.32 46.080-102.4 102.4-102.4h409.6c56.371 0 102.4 46.080 102.4 102.4v102.4h-101.325v-102.4zM972.8 422.4l-203.725 199.68v-122.88h-460.8v-153.6h460.8v-122.88l203.725 199.68z" />
<glyph unicode="&#xe627;" glyph-name="minus4" d="M0 576h1024v-256h-1024z" />
<glyph unicode="&#xe628;" glyph-name="move" d="M576 320v-192h128l-192-192-192 192h128v192zM448 576v192h-128l192 192 192-192h-128v-192zM384 384h-192v-128l-192 192 192 192v-128h192zM640 512h192v128l192-192-192-192v128h-192z" />
<glyph unicode="&#xe629;" glyph-name="next2" d="M938.035 472.525l-382.054 253.44c-29.338 19.558-53.402 5.171-53.402-31.949v-491.981c0-37.171 24.064-51.558 53.402-31.949l382.054 253.389c0 0 14.285 10.24 14.285 24.525s-14.285 24.525-14.285 24.525zM473.395 472.525l-368.845 253.491c-29.286 19.507-53.299 5.12-53.299-32v-491.981c0-37.171 24.013-51.558 53.35-31.949l368.845 253.389c0 0 14.285 10.24 14.285 24.525s-14.336 24.525-14.336 24.525z" />
<glyph unicode="&#xe62a;" glyph-name="pencil9" d="M207.433 82.286l52.005 52.005-134.29 134.29-52.005-52.005v-61.147h73.143v-73.143h61.147zM506.295 612.571q0 12.581-12.581 12.581-5.705 0-9.728-3.986l-309.723-309.723q-3.986-3.986-3.986-9.728 0-12.581 12.581-12.581 5.705 0 9.728 3.986l309.723 309.723q3.986 3.986 3.986 9.728zM475.429 722.286l237.714-237.714-475.429-475.429h-237.714v237.714zM865.719 667.429q0-30.281-21.138-51.419l-94.866-94.866-237.714 237.714 94.866 94.281q20.553 21.723 51.419 21.723 30.281 0 52.005-21.723l134.29-133.705q21.138-22.272 21.138-52.005z" />
<glyph unicode="&#xe62b;" glyph-name="pencil42" d="M847.923 783.974c-73.83 73.882-129.28 62.822-129.28 62.822l-554.291-554.291-51.712-243.866 243.866 51.712 554.24 554.24c0 0 11.11 55.45-62.822 129.382zM341.965 129.69l-83.098-17.92c-8.038 15.002-17.715 30.003-35.379 47.718s-32.717 27.29-47.718 35.328l17.971 83.149 24.013 24.013c0 0 45.261-0.922 96.307-51.968 51.098-51.098 52.019-96.358 52.019-96.358l-24.115-23.962z" />
<glyph unicode="&#xe62c;" glyph-name="plus4" d="M992 576h-352v352c0 17.664-14.304 32-32 32h-192c-17.696 0-32-14.336-32-32v-352h-352c-17.696 0-32-14.336-32-32v-192c0-17.696 14.304-32 32-32h352v-352c0-17.696 14.304-32 32-32h192c17.696 0 32 14.304 32 32v352h352c17.696 0 32 14.304 32 32v192c0 17.664-14.304 32-32 32z" />
<glyph unicode="&#xe62d;" glyph-name="previous2" d="M71.629 448c0-14.285 14.285-24.525 14.285-24.525l382.106-253.389c29.286-19.61 53.35-5.222 53.35 31.949v491.981c0 37.171-24.064 51.507-53.35 32l-382.106-253.44c0.051-0.051-14.285-10.291-14.285-24.576zM536.32 448c0-14.285 14.285-24.525 14.285-24.525l368.794-253.389c29.338-19.61 53.35-5.222 53.35 31.949v491.981c0 37.171-24.013 51.507-53.35 32l-368.794-253.44c0-0.051-14.285-10.291-14.285-24.576z" />
<glyph unicode="&#xe62e;" glyph-name="refresh4" d="M977.455 471.273l-325.818 139.636 130.234 93.044c-67.863 71.494-163.514 116.41-269.871 116.41-180.364 0-330.659-128.233-364.963-298.449l-86.9 35.98c49.431 203.916 232.727 355.561 451.863 355.561 137.635 0 260.841-60.137 346.112-155.089l119.343 85.271v-372.364zM242.129 192.047c67.817-71.494 163.514-116.41 269.871-116.41 181.062 0 331.776 129.21 365.289 300.451l86.807-37.143c-49.152-204.335-232.634-356.399-452.096-356.399-137.635 0-260.887 60.137-346.112 155.089l-119.343-85.271v372.364l325.818-139.636-130.234-93.044z" />
<glyph unicode="&#xe62f;" glyph-name="search62" d="M898.304 168.038l-193.485 193.485c29.184 47.974 45.978 104.192 45.978 164.454 0 174.899-151.603 326.502-326.554 326.502-174.899 0-316.723-141.824-316.723-316.723s151.552-326.554 326.502-326.554c58.163 0 112.64 15.77 159.488 43.162l194.509-194.56c19.098-19.046 49.92-19.046 68.915 0l48.282 48.23c18.995 19.046 12.083 43.008-6.912 62.003zM205.005 535.757c0 121.088 98.15 219.29 219.238 219.29s229.069-107.93 229.069-229.069-98.15-219.29-219.29-219.29-229.018 107.93-229.018 229.069z" />
<glyph unicode="&#xe630;" glyph-name="settings5" d="M426.581 597.419c86.997 0 157.952-65.323 168.533-149.419h150.016c-1.408 20.139-4.139 39.893-9.045 58.837l121.216 69.973-85.376 147.883-121.045-69.888c-38.187 37.589-85.76 65.365-138.88 80.085v139.861h-170.752v-139.861c-53.12-14.677-100.736-42.496-138.923-80.043l-121.003 69.845-85.376-147.883 121.131-69.931c-6.613-25.685-10.539-52.395-10.539-80.128s3.883-54.485 10.539-80.128l-121.131-69.973 85.376-147.84 120.96 69.845c38.187-37.589 85.845-65.365 138.965-80.043v-139.861h170.752v301.013c-25.216-14.677-54.144-23.723-85.419-23.723-94.251 0-170.667 76.416-170.667 170.667s76.416 170.709 170.667 170.709zM981.248 192c0 15.787-2.816 30.805-6.869 45.312l79.232 45.739-42.624 73.813-78.677-45.397c-21.376 21.76-48.64 37.333-79.061 45.269v91.264h-85.248v-91.264c-30.507-7.851-57.771-23.424-79.189-45.227l-78.549 45.355-42.624-73.813 79.061-45.611c-4.053-14.592-6.912-29.611-6.912-45.44s2.859-30.891 6.912-45.44l-79.061-45.611 42.624-73.813 78.549 45.355c21.419-21.803 48.725-37.376 79.189-45.227v-91.264h85.248v91.307c30.421 7.936 57.685 23.509 79.061 45.269l78.72-45.44 42.624 73.813-79.232 45.739c4.011 14.507 6.827 29.525 6.827 45.312zM810.496 106.752c-47.104 0-85.248 38.187-85.248 85.248s38.187 85.248 85.248 85.248 85.248-38.187 85.248-85.248-38.144-85.248-85.248-85.248z" />
<glyph unicode="&#xe631;" glyph-name="share4" d="M853.333 277.332c-51.2 0-96.683-23.125-128-58.965l-312.491 156.245c8.491 22.955 13.824 47.488 13.824 73.387s-5.333 50.432-13.824 73.387l312.491 156.245c31.317-35.84 76.8-58.965 128-58.965 94.123 0 170.667 76.587 170.667 170.667s-76.544 170.667-170.667 170.667-170.667-76.587-170.667-170.667c0-12.245 1.408-24.149 3.883-35.669l-318.72-159.36c0.128-0.128 0.171-0.299 0.299-0.384-38.912 41.259-93.696 67.413-154.795 67.413-117.632 0-213.333-95.701-213.333-213.333s95.701-213.333 213.333-213.333c61.099 0 115.883 26.155 154.795 67.413-0.128-0.085-0.171-0.256-0.299-0.384l318.72-159.36c-2.475-11.52-3.883-23.424-3.883-35.669 0-94.080 76.544-170.667 170.667-170.667s170.667 76.587 170.667 170.667-76.544 170.667-170.667 170.667zM853.333 874.666c47.061 0 85.333-38.229 85.333-85.333s-38.272-85.333-85.333-85.333-85.333 38.229-85.333 85.333 38.272 85.333 85.333 85.333zM213.333 319.999c-70.571 0-128 57.429-128 128s57.429 128 128 128 128-57.429 128-128-57.429-128-128-128zM853.333 21.332c-47.061 0-85.333 38.229-85.333 85.333s38.272 85.333 85.333 85.333 85.333-38.229 85.333-85.333-38.272-85.333-85.333-85.333z" />
<glyph unicode="&#xe632;" glyph-name="times" d="M742.997 678.997c-33.28 33.323-87.381 33.323-120.661 0l-110.336-110.336-110.336 110.336c-33.28 33.323-87.381 33.323-120.661 0-33.323-33.323-33.323-87.339 0-120.661l110.293-110.336-110.293-110.336c-33.323-33.323-33.323-87.339 0-120.661 16.64-16.683 38.485-25.003 60.331-25.003s43.691 8.32 60.331 25.003l110.336 110.336 110.336-110.336c16.64-16.683 38.485-25.003 60.331-25.003s43.691 8.32 60.331 25.003c33.323 33.323 33.323 87.339 0 120.661l-110.293 110.336 110.293 110.336c33.323 33.323 33.323 87.339 0 120.661z" />
<glyph unicode="&#xe633;" glyph-name="times-circle" d="M656.567 318.866q0 14.848-10.862 25.71l-103.424 103.424 103.424 103.424q10.862 10.862 10.862 25.71 0 15.433-10.862 26.295l-51.419 51.419q-10.862 10.862-26.295 10.862-14.848 0-25.71-10.862l-103.424-103.424-103.424 103.424q-10.862 10.862-25.71 10.862-15.433 0-26.295-10.862l-51.419-51.419q-10.862-10.862-10.862-26.295 0-14.848 10.862-25.71l103.424-103.424-103.424-103.424q-10.862-10.862-10.862-25.71 0-15.433 10.862-26.295l51.419-51.419q10.862-10.862 26.295-10.862 14.848 0 25.71 10.862l103.424 103.424 103.424-103.424q10.862-10.862 25.71-10.862 15.433 0 26.295 10.862l51.419 51.419q10.862 10.862 10.862 26.295zM877.714 448q0-119.442-58.843-220.27t-159.707-159.707-220.27-58.843-220.27 58.843-159.707 159.707-58.843 220.27 58.843 220.27 159.707 159.707 220.27 58.843 220.27-58.843 159.707-159.707 58.843-220.27z" />
<glyph unicode="&#xe634;" glyph-name="trashcan2" d="M672 64c17.696 0 32 14.304 32 32v448c0 17.696-14.304 32-32 32s-32-14.304-32-32v-448c0-17.696 14.304-32 32-32zM352 64c17.664 0 32 14.304 32 32v448c0 17.696-14.336 32-32 32s-32-14.304-32-32v-448c0-17.696 14.336-32 32-32zM928 768h-128v64c0 70.688-57.312 128-128 128h-320c-70.688 0-128-57.312-128-128v-64h-128l-96-96c0-17.696 14.336-32 32-32h96v-640c0-35.328 28.672-64 64-64h640c35.328 0 64 28.672 64 64v640h96c17.696 0 32 14.304 32 32l-96 96zM320 832c0 35.328 28.672 64 64 64h256c35.328 0 64-28.672 64-64v-64h-384v64zM832 32c0-17.696-14.304-32-32-32h-576c-17.664 0-32 14.304-32 32v608h640v-608zM512 64c17.696 0 32 14.304 32 32v448c0 17.696-14.304 32-32 32s-32-14.304-32-32v-448c0-17.696 14.304-32 32-32z" />
<glyph unicode="&#xe635;" glyph-name="upload4" horiz-adv-x="768" d="M0 960h768v-128h-768zM256 512v-576h256v576h128l-256 320-256-320z" />
<glyph unicode="&#xe636;" glyph-name="upload7" horiz-adv-x="951" d="M731.429 118.857q0 14.848-10.862 25.71t-25.71 10.862-25.71-10.862-10.862-25.71 10.862-25.71 25.71-10.862 25.71 10.862 10.862 25.71zM877.714 118.857q0 14.848-10.862 25.71t-25.71 10.862-25.71-10.862-10.862-25.71 10.862-25.71 25.71-10.862 25.71 10.862 10.862 25.71zM950.857 246.857v-182.857q0-22.857-16.018-38.839t-38.839-16.018h-841.143q-22.857 0-38.839 16.018t-16.018 38.839v182.857q0 22.857 16.018 38.839t38.839 16.018h244.005q11.995-32 40.302-52.553t63.159-20.553h146.286q34.853 0 63.159 20.553t40.302 52.553h244.005q22.857 0 38.839-16.018t16.018-38.839zM765.147 617.143q-9.728-22.857-33.719-22.857h-146.286v-256q0-14.848-10.862-25.71t-25.71-10.862h-146.286q-14.848 0-25.71 10.862t-10.862 25.71v256h-146.286q-23.991 0-33.719 22.857-9.728 22.272 8.009 39.424l256 256q10.277 10.862 25.71 10.862t25.71-10.862l256-256q17.701-17.152 8.009-39.424z" />
<glyph unicode="&#xe637;" glyph-name="upload42" d="M512 857.498l-266.24-249.856h168.96v-262.144h194.56v262.144h169.011l-266.291 249.856zM990.208 266.547l-163.021 109.67h-100.506l174.080-133.53h-181.504c-5.222 0-9.882-2.662-12.288-6.81l-41.779-114.432h-306.381l-41.83 114.432c-2.304 4.147-7.066 6.81-12.288 6.81h-181.453l174.131 133.53h-100.557l-162.97-109.67c-24.269-14.49-38.758-47.923-32.256-74.189l28.723-157.389c6.502-26.317 35.379-47.872 64.051-47.872h835.226c28.774 0 57.6 21.555 64.102 47.872l28.723 157.389c6.605 26.317-7.936 59.699-32.205 74.189z" />
<glyph unicode="&#xe638;" glyph-name="user5" d="M256 640c0 141.376 114.624 256 256 256s256-114.624 256-256c0-141.376-114.624-256-256-256s-256 114.624-256 256zM768 320h-512c-141.376 0-256-114.624-256-256v-64h1024v64c0 141.376-114.624 256-256 256z" />
<glyph unicode="&#xe639;" glyph-name="user6" d="M320 768c0 106.048 85.952 192 192 192s192-85.952 192-192c0-106.048-85.952-192-192-192s-192 85.952-192 192zM768.064 512h-35.424l-199.104-404.256 74.464 372.256-96 96-96-96 74.464-372.256-199.104 404.256h-35.424c-127.936 0-127.936-85.984-127.936-192v-320h768v320c0 106.016 0 192-127.936 192z" />
<glyph unicode="&#xe63a;" glyph-name="user8" d="M763.68 469.184c2.368 13.92 4.32 28.128 4.32 42.816v192c0 141.376-114.624 256-256 256s-256-114.624-256-256v-192c0-14.688 1.952-28.864 4.32-42.816-154.88-55.008-260.32-157.952-260.32-277.184v-192c0-35.36 28.608-64 64-64h896c35.36 0 64 28.64 64 64v192c0 119.264-105.44 222.176-260.32 277.184zM384 704c0 70.688 57.312 128 128 128s128-57.312 128-128v-192c0-70.688-57.312-128-128-128s-128 57.312-128 128v192zM896 64h-768v128c0 69.12 73.632 129.184 183.2 163.008 46.88-59.872 118.944-99.008 200.8-99.008s153.952 39.136 200.8 99.008c109.568-33.824 183.2-93.888 183.2-163.008v-128z" />
<glyph unicode="&#xe63b;" glyph-name="user102" d="M758.784 220.262c-126.208 45.978-166.554 84.787-166.554 167.885 0 49.869 38.554 33.587 55.45 124.928 7.014 37.888 41.062 0.614 47.616 87.091 0 34.458-18.586 43.059-18.586 43.059s9.472 51.046 13.158 90.266c4.506 48.947-28.262 175.309-203.469 175.309-175.155 0-208.026-126.362-203.418-175.309 3.686-39.219 13.158-90.266 13.158-90.266s-18.637-8.55-18.637-43.059c6.502-86.477 40.55-49.203 47.565-87.091 16.947-91.341 55.501-75.059 55.501-124.928 0-83.098-40.346-121.907-166.554-167.885-126.669-46.080-208.896-93.133-208.896-125.235s0-107.776 0-107.776h962.56c0 0 0 75.725 0 107.776s-82.278 79.104-208.896 125.235z" />
<glyph unicode="&#xe63c;" glyph-name="user-add2" d="M633.702 220.262c-127.539 45.978-168.294 84.787-168.294 167.885 0 49.869 38.963 33.587 56.064 124.928 7.117 37.888 41.523 0.614 48.026 87.091 0 34.458-18.739 43.059-18.739 43.059s9.574 51.046 13.261 90.266c4.608 48.947-28.57 175.309-205.619 175.309s-210.227-126.362-205.619-175.309c3.738-39.27 13.312-90.266 13.312-90.266s-18.79-8.55-18.79-43.059c6.605-86.477 41.011-49.203 48.026-87.091 17.152-91.341 56.115-75.059 56.115-124.928 0-83.098-40.806-121.907-168.346-167.885-15.36-5.478-51.968-14.080-83.098-27.546v-205.517h819.2c0 0 0 75.725 0 107.776s-57.498 79.155-185.498 125.286zM870.4 499.2v153.6h-102.4v-153.6h-153.6v-102.4h153.6v-153.6h102.4v153.6h153.6v102.4h-153.6z" />
<glyph unicode="&#xe63d;" glyph-name="warning" d="M977.76 152.992l-400.608 685.952c-33.408 33.408-87.616 33.408-121.024 0l-400.64-685.952c-33.408-33.376-33.408-87.552 0-120.992h922.24c33.472 33.44 33.472 87.616 0.032 120.992zM479.744 592.704c0 26.528 21.504 48 48 48s48-21.472 48-48v-224c0-26.496-21.504-48-48-48s-48 21.504-48 48v224zM528.032 160.448c-26.496 0-48 21.44-48 48 0 26.496 21.504 48 48 48s48-21.504 48-48c0-26.56-21.504-48-48-48z" />
<glyph unicode="&#xe63e;" glyph-name="warning3" d="M512 801.28l-344.832-737.28h689.664l-344.832 737.28zM512 960v0c22.080 0 44.128-14.88 60.896-44.64l437.088-871.104c33.504-59.52 4.992-108.256-63.296-108.256h-869.312c-68.32 0-96.8 48.704-63.296 108.256l437.088 871.104c16.736 29.76 38.816 44.64 60.896 44.64zM448 192c0 35.36 28.64 64 64 64s64-28.64 64-64c0-35.36-28.64-64-64-64s-64 28.64-64 64zM512 576c35.36 0 64-28.64 64-64l-20-192h-88l-20 192c0 35.36 28.64 64 64 64z" />
<glyph unicode="&#xe63f;" glyph-name="cloudy4" d="M1024 480c0 98.336-80 178.304-178.336 178.304-4.8 0-9.536-0.224-14.304-0.576-46.24 57.696-115.968 91.968-191.36 91.968-75.36 0-145.12-34.24-191.36-91.968-4.736 0.384-9.536 0.576-14.368 0.576-98.24 0-178.24-79.968-178.24-178.304 0-10.304 1.376-20.192 3.008-30.080-1.088-1.408-2.368-2.72-3.424-4.16-10.464 1.504-20.96 2.24-31.584 2.24-123.488 0-224-100.512-224-224s100.512-224 224-224c27.392 0 54.176 4.992 79.424 14.656 57.92-50.496 131.584-78.656 208.576-78.656 77.088 0 150.656 28.16 208.576 78.656 25.248-9.664 52.032-14.656 79.424-14.656 123.488 0 224 100.512 224 224 0 51.36-18.080 98.176-47.328 136 29.152 31.808 47.328 73.664 47.328 120zM800 64c-34.24 0-65.824 11.008-91.872 29.344-46.944-56.576-116.864-93.344-196.128-93.344s-149.184 36.736-196.128 93.344c-26.016-18.336-57.632-29.344-91.872-29.344-88.384 0-160 71.616-160 160s71.616 160 160 160c21.632 0 42.112-4.384 60.864-12.128 1.12 2.112 2.496 4 3.616 6.048 11.264 20.544 25.12 39.36 41.344 56.096 46.176 47.84 110.336 78.016 182.176 78.016 99.424 0 184.672-57.344 227.072-140.128 11.296 4.64 23.328 7.616 35.744 9.632l25.184 2.496c24.672 0 47.744-6.080 68.64-16 22.624-10.816 42.048-26.752 57.28-46.368 20.992-27.040 34.080-60.704 34.080-97.632 0-88.384-71.616-160-160-160zM931.136 404.736c-36.96 26.912-82.016 43.264-131.136 43.264-10.624 0-21.12-0.736-31.584-2.24-59.744 81.408-154.048 130.24-256.416 130.24-68.256 0-132.64-22.080-185.888-60.672 14.944 45.696 57.472 78.944 108.128 78.944 15.488 0 30.112-3.136 43.488-8.672 30.368 59.136 91.264 100.032 162.24 100.032s131.904-40.928 162.176-100.032c13.472 5.536 28.16 8.672 43.488 8.672 63.168 0 114.336-51.168 114.336-114.304 0-28.96-11.136-55.072-28.864-75.232z" />
<glyph unicode="&#xe640;" glyph-name="share6" d="M170.667 277.333c51.2 0 96.683-23.125 128-58.965l312.491 156.245c-8.491 22.955-13.824 47.488-13.824 73.387s5.333 50.432 13.824 73.387l-312.491 156.245c-31.317-35.84-76.8-58.965-128-58.965-94.123 0-170.667 76.587-170.667 170.667s76.544 170.667 170.667 170.667 170.667-76.587 170.667-170.667c0-12.245-1.408-24.149-3.883-35.669l318.72-159.36c-0.128-0.128-0.171-0.299-0.299-0.384 38.912 41.259 93.696 67.413 154.795 67.413 117.632 0 213.333-95.701 213.333-213.333s-95.701-213.333-213.333-213.333c-61.099 0-115.883 26.155-154.795 67.413 0.128-0.085 0.171-0.256 0.299-0.384l-318.72-159.36c2.475-11.52 3.883-23.424 3.883-35.669 0-94.080-76.544-170.667-170.667-170.667s-170.667 76.587-170.667 170.667 76.544 170.667 170.667 170.667zM170.667 874.667c-47.061 0-85.333-38.229-85.333-85.333s38.272-85.333 85.333-85.333 85.333 38.229 85.333 85.333-38.272 85.333-85.333 85.333zM810.667 320c70.571 0 128 57.429 128 128s-57.429 128-128 128-128-57.429-128-128 57.429-128 128-128zM170.667 21.333c47.061 0 85.333 38.229 85.333 85.333s-38.272 85.333-85.333 85.333-85.333-38.229-85.333-85.333 38.272-85.333 85.333-85.333z" />
<glyph unicode="&#xe641;" glyph-name="stack4" d="M896 704v128h-896v-640h128v-128h896v640h-128zM128 277.333h-42.667v469.333h725.333v-42.667h-682.667v-426.667zM938.667 149.333h-725.333v469.333h725.333v-469.333z" />
<glyph unicode="&#xe642;" glyph-name="time2" d="M512 848c-229.792 0-416-186.24-416-416s186.208-416 416-416c229.728 0 416 186.24 416 416s-186.24 416-416 416zM508.64 95.136c-185.568 0-336 150.432-336 336s150.432 336 336 336c185.536 0 336-150.432 336-336s-150.464-336-336-336zM605.76 411.808h-95.36v161.024c0 17.472-14.176 31.68-31.648 31.68s-31.68-14.176-31.68-31.68v-192.672c0-17.504 14.176-31.648 31.68-31.648h127.008c17.504 0 31.68 14.144 31.68 31.648 0 17.472-14.176 31.648-31.68 31.648z" />
<glyph unicode="&#xe643;" glyph-name="chevron-circle-down" d="M464.567 217.71l259.438 259.438q10.862 10.862 10.862 25.71t-10.862 25.71l-58.295 58.295q-10.862 10.862-25.71 10.862t-25.71-10.862l-175.433-175.433-175.433 175.433q-10.862 10.862-25.71 10.862t-25.71-10.862l-58.295-58.295q-10.862-10.862-10.862-25.71t10.862-25.71l259.438-259.438q10.862-10.862 25.71-10.862t25.71 10.862zM877.714 448q0-119.442-58.843-220.27t-159.707-159.707-220.27-58.843-220.27 58.843-159.707 159.707-58.843 220.27 58.843 220.27 159.707 159.707 220.27 58.843 220.27-58.843 159.707-159.707 58.843-220.27z" />
<glyph unicode="&#xe644;" glyph-name="chevron-circle-right" d="M409.71 162.853l259.438 259.438q10.862 10.862 10.862 25.71t-10.862 25.71l-259.438 259.438q-10.862 10.862-25.71 10.862t-25.71-10.862l-58.295-58.295q-10.862-10.862-10.862-25.71t10.862-25.71l175.433-175.433-175.433-175.433q-10.862-10.862-10.862-25.71t10.862-25.71l58.295-58.295q10.862-10.862 25.71-10.862t25.71 10.862zM877.714 448q0-119.442-58.843-220.27t-159.707-159.707-220.27-58.843-220.27 58.843-159.707 159.707-58.843 220.27 58.843 220.27 159.707 159.707 220.27 58.843 220.27-58.843 159.707-159.707 58.843-220.27z" />
<glyph unicode="&#xe645;" glyph-name="files2" d="M213.333 960v-128h-128v-896h725.333v128h128v896h-725.333zM725.333 21.333h-554.667v725.333h42.667v-682.667h512v-42.667zM853.333 149.333h-554.667v725.333h554.667v-725.333zM640 746.667h-256v-85.333h256v85.333zM768 618.667h-384v-42.667h384v42.667zM768 533.333h-384v-42.667h384v42.667zM768 448h-384v-42.667h384v42.667zM512 362.667h-128v-42.667h128v42.667z" />
<glyph unicode="&#xe646;" glyph-name="next22" d="M938.035 472.525l-382.054 253.44c-29.338 19.558-53.402 5.171-53.402-31.949v-491.981c0-37.171 24.064-51.558 53.402-31.949l382.054 253.389c0 0 14.285 10.24 14.285 24.525s-14.285 24.525-14.285 24.525zM473.395 472.525l-368.845 253.491c-29.286 19.507-53.299 5.12-53.299-32v-491.981c0-37.171 24.013-51.558 53.35-31.949l368.845 253.389c0 0 14.285 10.24 14.285 24.525s-14.336 24.525-14.336 24.525z" />
<glyph unicode="&#xe647;" glyph-name="plus2" d="M512 32c-229.76 0-416 186.24-416 416s186.24 416 416 416 416-186.24 416-416-186.24-416-416-416zM512 768c-176.704 0-320-143.264-320-320 0-176.704 143.296-320 320-320 176.736 0 320 143.296 320 320 0 176.736-143.264 320-320 320zM639.616 416h-96v-96c0-17.696-14.336-32-32-32-17.696 0-32 14.304-32 32v96h-96c-17.696 0-32 14.336-32 32s14.304 32 32 32h96v96c0 17.696 14.304 32 32 32 17.664 0 32-14.304 32-32v-96h96c17.664 0 32-14.336 32-32s-14.336-32-32-32z" />
<glyph unicode="&#xe648;" glyph-name="plus6" d="M768 533.333h-170.667v170.667c0 47.104-38.229 85.333-85.333 85.333s-85.333-38.229-85.333-85.333l3.029-170.667h-173.696c-47.104 0-85.333-38.229-85.333-85.333s38.229-85.333 85.333-85.333l173.696 3.029-3.029-173.696c0-47.104 38.229-85.333 85.333-85.333s85.333 38.229 85.333 85.333v173.696l170.667-3.029c47.104 0 85.333 38.229 85.333 85.333s-38.229 85.333-85.333 85.333z" />
<glyph unicode="&#xe649;" glyph-name="cross3" d="M742.996 657.664c-33.28 33.322-87.38 33.322-120.66 0l-110.336-110.336-110.336 110.336c-33.28 33.322-87.38 33.322-120.662 0-33.324-33.322-33.324-87.34 0-120.66l110.294-110.336-110.294-110.336c-33.324-33.322-33.324-87.338 0-120.662 16.64-16.682 38.486-25.004 60.332-25.004s43.69 8.32 60.332 25.004l110.336 110.336 110.336-110.336c16.64-16.682 38.486-25.004 60.332-25.004s43.692 8.32 60.332 25.004c33.322 33.322 33.322 87.338 0 120.662l-110.294 110.336 110.294 110.336c33.322 33.322 33.322 87.338 0 120.66z" />
<glyph unicode="&#xe64a;" glyph-name="network" d="M269.978 606.003c10.291 0 20.224-1.536 29.542-4.454 35.328 39.578 74.496 75.622 116.89 107.571-1.741 7.424-2.816 15.206-2.816 23.245 0 11.162 1.843 21.811 5.222 31.744-47.462 34.099-99.174 62.669-154.061 84.787-51.558-31.846-96.461-73.37-132.25-122.010 26.573-47.053 58.214-90.931 94.106-130.918 13.158 6.4 27.853 10.035 43.366 10.035zM169.779 505.805c0 14.029 2.918 27.443 8.141 39.578-32.102 35.328-61.286 73.421-86.835 114.074-32-63.59-50.125-135.424-50.125-211.456 0-88.115 24.269-170.496 66.355-240.998 15.002 84.736 43.571 164.864 82.944 238.285-12.8 16.794-20.48 37.734-20.48 60.518zM513.792 832.614c26.522 0 50.483-10.342 68.403-27.085 52.275 22.477 107.366 39.731 164.659 50.739-69.171 39.834-149.299 62.771-234.854 62.771-58.317 0-114.125-10.701-165.632-30.106 40.909-20.224 79.923-43.725 116.531-70.349 14.95 8.858 32.307 14.029 50.893 14.029zM663.706 360.55c6.246 13.005 15.104 24.474 26.061 33.587-29.594 91.034-76.442 174.285-136.806 245.965-12.032-5.12-25.242-7.936-39.168-7.936-21.709 0-41.779 7.014-58.214 18.739-36.352-27.597-69.939-58.573-100.506-92.365 9.523-15.309 15.104-33.331 15.104-52.736 0-10.496-1.587-20.531-4.557-30.054 87.91-58.726 189.082-99.021 298.086-115.2zM793.702 225.229c1.331-18.944 2.099-38.093 2.099-57.395 0-34.048-2.202-67.482-6.298-100.403 79.923 58.368 140.698 141.158 171.418 237.517-36.352-8.806-73.626-15.104-111.667-18.739-8.96-27.392-29.338-49.613-55.552-60.979zM640.205 293.222c-116.275 19.251-224.102 63.59-317.901 127.181-15.258-9.37-33.075-14.848-52.275-14.848-7.066 0-13.875 0.768-20.531 2.15-44.902-85.197-73.626-180.224-81.92-280.883 44.851-48.077 99.584-86.784 161.075-112.794 76.288 117.299 182.989 214.426 311.552 279.194zM828.211 797.082c-75.469-7.27-147.558-26.214-214.682-54.682 0.41-3.277 0.563-6.656 0.563-10.035 0-15.821-3.738-30.72-10.291-43.981 67.072-78.746 119.142-170.496 152.064-270.899 40.704-0.768 75.571-25.702 90.573-61.184 45.363 4.608 89.498 13.312 132.045 25.805 2.918 21.504 4.557 43.469 4.557 65.894 0 138.445-59.75 262.963-154.829 349.082zM690.637 239.667c-120.064-56.218-220.365-142.797-293.069-248.627 36.608-9.165 74.957-14.080 114.432-14.080 71.117 0 138.394 15.821 198.81 43.981 9.677 47.462 14.848 96.563 14.848 146.893 0 18.125-0.87 36.147-2.202 54.016-12.083 3.84-23.194 9.933-32.819 17.818z" />
<glyph unicode="&#xe64b;" glyph-name="orange" d="M859.29 232.602h-20.992v7.578h51.046v-7.578h-21.043v-61.389h-9.011v61.389zM955.187 201.523c-0.512 9.626-1.075 21.197-1.024 29.798h-0.307c-2.406-8.090-5.274-16.691-8.704-26.214l-12.186-33.485h-6.758l-11.162 32.87c-3.277 9.728-6.042 18.637-7.987 26.829h-0.205c-0.205-8.602-0.717-20.224-1.331-30.515l-1.792-29.594h-8.499l4.813 69.018h11.366l11.776-33.382c2.867-8.499 5.222-16.026 6.963-23.194h0.307c1.741 6.963 4.198 14.49 7.27 23.194l12.288 33.382h11.366l4.301-69.018h-8.704l-1.792 30.31zM201.779 107.264c0-45.875-32.563-66.867-66.099-66.867-36.659 0-64.87 24.064-64.87 64.563s26.675 66.355 66.918 66.355c38.451 0 64.051-26.368 64.051-64.051zM111.104 105.984c0-21.555 8.96-37.683 25.6-37.683 15.104 0 24.883 15.155 24.883 37.683 0 18.688-7.168 37.632-24.883 37.632-18.688 0.051-25.6-19.149-25.6-37.632zM225.741 127.232c0 18.432-0.512 30.515-1.024 41.267h33.587l1.28-23.040h1.024c6.4 18.176 21.76 25.856 33.843 25.856 3.584 0 5.376 0 8.192-0.512v-36.659c-2.816 0.563-6.144 1.075-10.496 1.075-14.336 0-24.115-7.68-26.675-19.763-0.512-2.56-0.768-5.632-0.768-8.704v-63.539h-38.963v84.019zM391.475 43.213l-2.304 12.544h-0.819c-8.192-9.984-20.992-15.36-35.84-15.36-25.395 0-40.499 18.432-40.499 38.4 0 32.563 29.235 48.179 73.574 47.974v1.792c0 6.656-3.584 16.128-22.784 16.128-12.8 0-26.419-4.403-34.611-9.523l-7.168 25.088c8.704 4.915 25.856 11.008 48.691 11.008 41.779 0 55.091-24.576 55.091-54.067v-43.571c0-12.032 0.512-23.603 1.792-30.515h-35.123zM386.816 102.4c-20.48 0.256-36.352-4.608-36.352-19.763 0-9.984 6.656-14.848 15.36-14.848 9.728 0 17.664 6.4 20.224 14.336 0.512 2.048 0.768 4.352 0.768 6.656v13.619zM455.424 128.563c0 15.616-0.563 28.928-1.075 39.936h33.843l1.792-17.152h0.768c5.12 7.936 17.971 19.968 38.707 19.968 25.6 0 44.851-16.896 44.851-53.811v-74.291h-38.963v69.427c0 16.128-5.632 27.136-19.763 27.136-10.752 0-17.152-7.424-19.763-14.592-1.024-2.304-1.485-6.144-1.485-9.728v-72.243h-38.912v85.35zM725.043 168.499c-0.512-7.936-1.075-18.432-1.075-37.171v-69.939c0-24.115-4.864-43.776-18.944-56.422-13.875-11.725-32.563-15.36-50.995-15.36-16.384 0-33.792 3.328-45.107 9.728l7.68 29.44c7.936-4.608 21.811-9.523 36.403-9.523 18.432 0 32.563 9.984 32.563 33.075v8.192h-0.512c-7.475-10.496-19.507-16.384-33.843-16.384-30.976 0-53.043 25.139-53.043 61.235 0 40.243 26.163 65.843 56.883 65.843 17.152 0 27.904-7.424 34.355-17.664h0.512l1.229 14.848h33.894zM685.107 117.504c0 2.611-0.307 5.171-0.819 7.219-2.816 10.24-10.24 17.152-20.992 17.152-14.080 0-25.651-12.8-25.651-35.584 0-18.688 9.267-33.331 25.651-33.331 9.984 0 17.971 6.707 20.48 15.923 1.024 2.867 1.28 6.963 1.28 10.24v18.381zM785.101 93.389c1.28-16.077 17.203-23.808 35.379-23.808 13.312 0 24.064 1.792 34.56 5.12l5.171-26.419c-12.8-5.12-28.467-7.629-45.363-7.629-42.547 0-66.918 24.576-66.918 63.795 0 31.744 19.763 66.867 63.283 66.867 40.499 0 55.859-31.488 55.859-62.515 0-6.656-0.768-12.544-1.229-15.411h-80.742zM830.976 120.115c0 9.472-4.096 25.344-22.067 25.344-16.384 0-23.040-14.848-24.115-25.344h46.182z" />
<glyph unicode="&#xe64c;" glyph-name="onedrive-business" horiz-adv-x="1647" d="M0 250.716c2.347 10.869 4.786 21.739 7.040 32.608 18.558 89.456 79.111 150.348 167.517 166.498 16.582 3.026 21.739 9.047 20.843 26.401-6.114 116.783 69.384 249.994 207.628 280.286 57.373 12.568 113.078 6.546 166.622-18.188 5.867-2.717 11.641-5.558 17.786-8.492 116.289 174.557 268.645 229.614 460.34 137.843 99.553-47.677 190.491-188.268 180.486-265.65-26-4.57-53.266-5.311-77.259-14.698s-35.109-4.014-51.29 15.131c-51.784 61.202-119.655 92.266-198.828 97.639-95.662 6.485-181.412-18.99-253.36-84.7-52.679-48.109-84.175-109.527-100.973-178.788-2.686-11.055-6.824-15.131-17.663-17.848-65.247-16.397-123.577-45.546-166.375-100.294-42.983-54.995-54.81-118.667-48.047-187.002 4.138-41.933 17.416-80.995 39.772-120.211-45.052 0-87.109-0.34-129.135 0.154-16.335 0.185-33.009 0.556-48.943 3.736-87.85 17.632-159.087 95.353-171.994 186.199-0.679 4.632-2.748 9.047-4.169 13.525 0 11.95 0 23.9 0 35.85zM619.026 71.558h-10.005v-37.147c2.872-0.401 6.361-0.401 11.363-0.401 13.309 0 25.043 5.095 25.043 18.96 0 13.309-11.734 18.589-26.401 18.589zM1096.997 91.32c-12.321 0-17.354-11.332-18.126-19.361h34.677c0 7.226-3.088 19.361-16.551 19.361zM1461.428 289.191c-13.525 3.705-18.218 8.8-18.28 23.807-0.401 102.826-58.7 185.427-153.004 217.355-62.9 21.306-124.935 15.995-185.365-10.344-9.572-4.169-15.038-4.323-21.769 5.126-62.838 88.128-148.156 127.436-254.719 117.926-87.665-7.812-158.068-45.978-205.313-123.638-24.394-40.142-39.339-83.867-47.059-129.999-2.131-12.66-7.102-16.891-18.682-18.249-15.069-1.76-30.323-3.922-44.867-8.121-74.51-21.492-133.643-61.788-150.040-143.957-6.392-31.959-6.207-66.698-1.884-99.213 10.591-79.482 49.684-140.56 127.159-167.332 29.983-10.375 63.116-15.223 94.859-15.594 142.258-1.606 284.517-0.71 426.775-0.71 144.018 0 288.037-0.093 432.086 0.031 66.667 0.062 118.543 35.974 138.862 100.387 8.245 26.123 12.166 54.871 11.919 82.354-0.803 88.128-47.059 147.23-130.679 170.173zM662.781 23.85c-9.449-7.627-25.228-11.919-51.073-11.919-14.451 0-25.228 0.957-31.774 1.945v129.444c7.72 1.575 23.313 2.748 37.95 2.748 17.941 0 28.933-1.76 38.351-7.442 9.047-4.879 15.594-13.865 15.594-25.784 0-11.765-6.732-22.696-21.399-28.161v-0.401c14.853-4.107 25.815-15.439 25.815-32.484 0.031-11.919-5.373-21.275-13.463-27.945zM759.4 13.289l-1.359 13.494h-0.587c-3.675-5.836-12.537-15.625-29.489-15.625-19.083 0-33.133 12.135-33.133 41.655v56.107h29.489v-51.444c0-13.865 4.447-22.294 14.637-22.294 8.090 0 12.722 5.682 14.637 10.375 0.772 1.76 0.957 4.107 0.957 6.454v56.909h29.489v-64.938c0-12.506 0.401-22.665 0.741-30.693h-25.382zM832.49 11.344c-12.321 0-23.344 2.748-30.477 6.67l5.188 21.275c5.404-3.304 16.613-7.195 25.29-7.195 8.862 0 12.506 3.119 12.506 7.998s-2.903 7.226-13.865 10.931c-19.484 6.67-27.019 17.416-26.803 28.779 0 17.786 15.038 31.28 38.351 31.28 10.993 0 20.843-2.532 26.587-5.466l-5.188-20.534c-4.261 2.347-12.321 5.466-20.442 5.466-7.102 0-11.147-2.933-11.147-7.812 0-4.508 3.644-6.855 15.192-10.931 17.941-6.268 25.444-15.439 25.629-29.52 0.031-17.848-13.865-30.94-40.822-30.94zM920.278 13.289h-29.273v95.631h29.273v-95.631zM905.457 120.655c-9.264 0-15.408 6.639-15.223 14.853-0.185 8.584 5.96 15.038 15.439 15.038 9.449 0 15.408-6.454 15.594-15.038-0.031-8.214-6.176-14.853-15.81-14.853zM1033.14 13.289h-29.273v52.988c0 12.321-4.261 20.75-14.822 20.75-8.121 0-12.938-5.682-14.822-11.147-0.772-1.76-1.173-4.694-1.173-7.411v-55.149h-29.273v65.092c0 11.95-0.401 22.109-0.772 30.508h25.444l1.359-13.123h0.587c3.86 6.052 13.494 15.254 29.088 15.254 19.268 0 33.72-12.907 33.72-41.069v-56.693zM1139.764 51.61h-60.708c0.926-12.321 12.907-18.188 26.556-18.188 10.036 0 18.126 1.359 26.031 3.922l3.86-20.133c-9.665-3.922-21.368-5.867-34.090-5.867-31.99 0-50.301 18.774-50.301 48.696 0 24.24 14.822 51.012 47.584 51.012 30.446 0 42.026-24.024 42.026-47.708 0.031-5.095-0.587-9.572-0.957-11.734zM1183.242 11.344c-12.321 0-23.344 2.748-30.446 6.67l5.188 21.275c5.404-3.304 16.582-7.195 25.259-7.195 8.862 0 12.506 3.119 12.506 7.998s-2.903 7.226-13.865 10.931c-19.484 6.67-26.988 17.416-26.772 28.779 0 17.786 15.007 31.28 38.32 31.28 10.993 0 20.812-2.532 26.587-5.466l-5.188-20.534c-4.261 2.347-12.321 5.466-20.442 5.466-7.102 0-11.147-2.933-11.147-7.812 0-4.508 3.644-6.855 15.192-10.931 17.941-6.268 25.444-15.439 25.629-29.52 0-17.848-13.865-30.94-40.822-30.94zM1266.769 11.344c-12.321 0-23.344 2.748-30.446 6.67l5.188 21.275c5.404-3.304 16.582-7.195 25.259-7.195 8.862 0 12.506 3.119 12.506 7.998s-2.903 7.226-13.865 10.931c-19.484 6.67-26.988 17.416-26.772 28.779 0 17.786 15.007 31.28 38.32 31.28 10.993 0 20.812-2.532 26.587-5.466l-5.188-20.534c-4.261 2.347-12.321 5.466-20.442 5.466-7.102 0-11.147-2.933-11.147-7.812 0-4.508 3.644-6.855 15.192-10.931 17.941-6.268 25.444-15.439 25.629-29.52 0-17.848-13.865-30.94-40.822-30.94zM642.37 109.106c0 9.974-7.534 15.254-20.812 15.254-6.361 0-10.005-0.401-12.506-0.772v-30.693h9.634c15.378-0.031 23.684 6.423 23.684 16.211z" />
<glyph unicode="&#xe800;" glyph-name="toggle-right" d="M307.264 696.32l-0.064-471.040 409.6 235.52z" />
<glyph unicode="&#xe801;" glyph-name="toggle-down" d="M747.52 665.536l-471.040 0.064 235.52-409.6z" />
<glyph unicode="&#xe802;" glyph-name="unlocked" d="M85.344 21.344c0-47.136 38.176-85.344 85.344-85.344h682.656c47.136 0 85.344 38.176 85.344 85.344v426.656c0 47.136-38.176 85.344-85.344 85.344h-512v149.344c0 94.304 76.384 170.656 170.656 170.656s170.656-76.384 170.656-170.656v-10.656c0-29.44 23.904-53.344 53.344-53.344s53.344 23.904 53.344 53.344v10.656c0 153.184-124.16 277.344-277.344 277.344s-277.344-124.16-277.344-277.344v-149.344h-64c-47.136 0-85.344-38.176-85.344-85.344v-426.656zM426.656 298.656c0 47.136 38.176 85.344 85.344 85.344s85.344-38.176 85.344-85.344c0-30.080-15.584-56.544-39.040-71.68 0 0 8.352-50.336 17.696-109.664 0-17.696-14.304-32-32-32h-64c-17.696 0-32 14.304-32 32l17.696 109.664c-23.456 15.136-39.040 41.6-39.040 71.68z" />
<glyph unicode="&#xe803;" glyph-name="locked-1" d="M234.656 682.656v-149.344h-64c-47.136 0-85.344-38.176-85.344-85.344v-426.656c0-47.136 38.176-85.344 85.344-85.344h682.656c47.136 0 85.344 38.176 85.344 85.344v426.656c0 47.136-38.176 85.344-85.344 85.344h-64v149.344c0 153.184-124.16 277.344-277.344 277.344s-277.344-124.16-277.344-277.344zM341.344 533.344v149.344c0 94.304 76.384 170.656 170.656 170.656s170.656-76.384 170.656-170.656v-149.344h-341.344zM426.656 298.656c0 47.136 38.176 85.344 85.344 85.344s85.344-38.176 85.344-85.344c0-30.080-15.584-56.544-39.040-71.68 0 0 8.352-50.336 17.696-109.664 0-17.696-14.304-32-32-32h-64c-17.696 0-32 14.304-32 32l17.696 109.664c-23.456 15.136-39.040 41.6-39.040 71.68z" />
<glyph unicode="&#xe804;" glyph-name="lock-closed" d="M725.334 554.666h-42.667v85.333c0 94.080-76.544 170.667-170.667 170.667s-170.667-76.587-170.667-170.667v-85.333h-42.667c-47.061 0-85.333-38.229-85.333-85.333v-298.667c0-47.104 38.272-85.333 85.333-85.333h426.667c47.061 0 85.333 38.229 85.333 85.333v298.667c0 47.104-38.272 85.333-85.333 85.333zM512.001 200.576c-30.677 0-55.467 24.747-55.467 55.424s24.789 55.509 55.467 55.509 55.467-24.832 55.467-55.509-24.789-55.424-55.467-55.424zM597.334 512h-170.667v128c0 47.104 38.272 85.333 85.333 85.333s85.333-38.229 85.333-85.333v-128z" />
<glyph unicode="&#xe805;" glyph-name="lock-open" d="M704.073 810.666c-94.123 0-170.667-76.587-170.667-170.667v-128h-170.667v42.667h-128c-47.061 0-85.333-38.229-85.333-85.333v-298.667c0-47.104 38.272-85.333 85.333-85.333h426.667c47.061 0 85.333 38.229 85.333 85.333v298.667c0 47.104-38.272 85.333-85.333 85.333h-42.667v85.333c0 47.104 38.272 85.333 85.333 85.333s85.333-38.229 85.333-85.333v-128c0-23.595 19.115-42.667 42.667-42.667s42.667 19.072 42.667 42.667v128c0 94.080-76.544 170.667-170.667 170.667zM448.073 200.576c-30.677 0-55.467 24.747-55.467 55.424s24.789 55.509 55.467 55.509 55.467-24.832 55.467-55.509-24.789-55.424-55.467-55.424z" />
<glyph unicode="&#xe806;" glyph-name="oauth" horiz-adv-x="1013" d="M248.245 822.013c-12.373-5.243-15.099-20.97-5.872-32.085 9.646-11.534 27.262-10.485 33.553 1.887 3.984 7.549 3.984 11.115 0 19.712-5.243 10.485-16.986 15.099-27.682 10.485zM754.898 118.655c-8.807-8.807-8.388-19.293 1.048-28.73s19.922-9.857 28.73-1.048c8.807 8.807 8.388 19.293-1.048 28.73s-19.922 9.857-28.73 1.048zM384.346 858.711c-4.614-1.468-9.437-2.936-14.050-4.404 0.209 3.356 0 6.501 0 9.857 0 1.468-0.209 7.549 1.887 7.969s5.453-4.614 6.501-5.872c1.887-2.517 3.775-5.033 5.662-7.549-0.839-0.209-4.194-0.419-3.565 1.468 0.419 1.887 3.145-0.839 3.565-1.468-4.614-1.468-4.404 5.453 0 0zM645.431 42.531c4.614 1.468 9.437 2.936 14.050 4.404-0.209-3.356 0-6.501 0-9.857 0-1.468 0.209-7.549-1.887-7.969s-5.453 4.614-6.501 5.872c-1.887 2.306-3.565 5.033-5.662 7.549 0.839 0.209 4.194 0.419 3.565-1.468-0.419-2.097-3.145 0.839-3.565 1.468 4.614 1.468 4.614-5.453 0 0zM466.761 958.112c-113.242-11.534-205.303-51.797-292.751-127.922-52.007-45.296-90.174-94.997-120.582-157.071-37.538-76.753-52.217-140.923-52.007-226.484 0.209-83.254 16.357-153.296 52.007-226.484 40.264-81.785 96.884-145.956 175.525-198.173 64.17-42.57 136.52-69.833 214.74-80.947 30.618-4.404 96.045-5.033 124.776-1.048 114.709 15.519 212.643 63.332 294.219 143.86 46.555 45.926 71.3 80.947 92.481 130.647 6.291 14.889 14.889 34.602 19.083 43.62 15.938 33.972 27.891 77.592 34.811 126.663 1.468 9.857 2.726 39.215 2.726 66.057-0.209 39.006-1.048 53.895-4.614 77.592-13.631 88.286-46.974 166.088-100.659 235.921-19.712 25.584-68.994 73.817-95.207 93.53-45.087 33.763-82.205 52.846-140.084 71.93-36.699 11.954-66.896 19.503-97.514 24.536-19.922 3.145-89.125 5.662-106.95 3.775zM492.974 896.878c0.839-24.536 1.468-28.31 5.033-31.037 4.404-3.145 13.421-3.775 17.196-1.258 5.453 3.565 7.13 11.744 7.13 36.069 0 22.439 0.419 25.374 3.356 24.326 1.887-0.629 7.13-1.258 11.744-1.258h8.388l-0.839-28.73c-1.048-32.924-3.145-39.215-15.728-46.974-10.276-6.501-32.085-6.92-42.57-0.839-14.26 8.598-15.728 12.582-16.357 47.394l-0.629 31.456 22.229-1.258 1.048-27.891zM643.963 903.17c35.441-11.115 34.811-10.485 29.359-24.745-1.887-4.614-1.887-4.614-12.373-1.258-5.872 1.678-11.115 2.726-11.954 2.097-0.629-0.839-4.823-13.421-9.437-28.101s-8.598-27.262-9.227-27.682c-1.048-1.048-16.147 3.775-18.455 5.872-1.468 1.258 9.227 41.732 14.68 55.783 0.629 1.678-3.145 3.775-10.905 6.081-9.646 2.726-11.744 3.984-10.485 6.92 0.629 1.887 1.887 6.081 2.517 9.437 0.629 3.145 1.678 5.662 2.517 5.662 0.629 0 15.938-4.614 33.763-10.066zM406.785 869.616c16.357-18.873 24.536-30.198 22.858-30.827-20.97-7.549-19.922-7.549-25.165-0.839l-4.823 6.291-14.68-5.033c-14.26-4.823-14.68-5.243-15.308-12.582-0.629-6.92-1.468-7.759-11.115-10.905-5.872-2.097-10.905-3.145-11.115-2.936-0.839 1.048 6.71 85.98 7.549 86.819 0.419 0.209 4.823 1.887 10.066 3.565 11.115 3.775 6.501 7.549 41.732-33.553zM748.817 859.55l8.179-5.453-8.388-12.582c-4.823-6.92-8.179-12.792-7.759-13.002 6.081-4.823 20.761-13.841 22.229-13.841 1.048 0 5.453 5.243 9.646 11.534l7.759 11.744 5.662-3.356c14.889-8.807 15.519-5.662-9.227-42.781l-22.439-33.553-9.227 6.291-9.227 6.501 3.565 5.453c1.887 3.145 5.872 8.807 8.388 12.792l4.823 7.34-11.744 7.759-11.954 7.969-7.13-10.905c-3.984-6.081-7.969-11.744-8.807-12.582-1.468-1.678-18.873 8.179-18.873 10.905 0 2.517 42.57 65.219 44.457 65.219 0.839 0 5.453-2.517 10.066-5.453zM282.219 838.16c22.858-16.147 24.117-48.023 2.306-66.896-21.39-18.873-53.685-12.582-65.429 12.582-8.179 17.825-5.662 32.294 8.179 46.974 15.728 16.567 37.747 19.503 54.944 7.34zM513.106 802.51c-0.629-1.048 7.759-10.485 18.244-20.97l19.293-19.293 15.728 15.728c8.598 8.598 16.567 15.728 17.825 15.728 1.048 0-5.453-7.549-14.68-16.777l-16.777-16.777 19.503-19.293 19.293-19.503 17.825 17.825c9.857 9.646 17.825 18.664 17.825 19.922 0 1.048-6.92 9.018-15.099 17.406-18.035 18.244-11.115 16.567 7.759-1.887l12.792-12.373 6.081 6.291c3.356 3.356 6.92 6.291 8.179 6.291 1.048 0-1.048-3.356-5.033-7.34l-7.13-7.34 19.293-19.503 19.293-19.293 13.631 13.631c7.549 7.34 13.631 12.582 13.631 11.324 0-1.048-5.662-7.549-12.582-14.469l-12.582-12.373 19.293-19.503 19.503-19.503 13.631 13.631c7.549 7.549 14.68 13.631 15.728 13.631s-4.614-6.71-12.582-14.68l-14.68-14.68 19.503-19.293 19.293-19.503 14.68 14.68c7.969 7.969 14.68 13.631 14.68 12.582s-6.081-8.179-13.631-15.728l-13.631-13.631 19.503-19.503 19.503-19.293 9.227 9.437c5.033 5.243 10.276 9.437 11.324 9.437 1.258 0-2.517-4.823-8.179-10.485l-10.276-10.485 18.664-18.873c14.889-14.889 19.712-18.664 23.068-17.616 3.565 1.258 3.775 1.048 1.468-1.887-1.887-2.097-2.097-3.565-0.419-4.614 1.048-0.629 3.565-4.404 5.453-7.969l3.356-6.71-7.13 6.71-7.13 6.92-18.664-18.873-18.873-18.873 38.795-38.795 10.485 10.485c5.662 5.662 10.485 9.437 10.485 8.179 0-1.048-4.194-6.291-9.437-11.324l-9.437-9.227 10.485-10.695c5.662-5.872 10.485-11.954 10.485-13.631s-5.453 2.306-12.163 9.018l-11.954 11.954-37.747-37.747 38.795-38.795 10.485 10.485c5.662 5.662 10.485 9.437 10.485 8.388s-4.194-6.291-9.437-11.534l-9.437-9.646 6.291-6.081c3.356-3.356 6.291-7.549 6.291-9.227 0-2.097-2.936-0.419-7.969 4.614l-7.969 7.759-18.244-18.455c-10.066-10.066-18.244-19.293-18.244-20.342 0-1.258 7.13-9.227 15.728-17.825s15.728-16.567 15.728-17.825c0-1.048-7.969 6.081-17.825 15.728l-17.825 17.825-38.795-38.795 38.795-38.795 13.631 13.631c16.777 16.567 18.035 14.889 1.678-2.306-10.485-11.115-11.744-13.002-9.437-16.567 3.775-6.081 2.936-7.34-1.678-3.145-4.404 3.984-4.614 3.775-23.697-15.308l-19.083-19.293 7.13-7.34c3.984-3.984 6.081-7.34 5.033-7.34-1.258 0-4.404 2.306-7.13 5.243s-5.872 5.243-7.13 5.243c-2.936 0-36.908-33.972-36.908-36.908 0-1.258 2.306-4.404 5.243-7.13s4.823-5.453 4.194-5.872c-0.629-0.629-3.984 1.468-7.34 4.823l-6.291 6.081-18.873-18.664c-13.631-13.631-18.455-19.712-17.616-22.439s0.209-3.356-2.097-2.517c-2.097 0.839-6.501-1.468-11.744-6.291-11.744-10.695-13.211-9.437-2.097 1.887l9.437 9.437-38.795 38.795-38.795-38.795 15.728-15.728c8.598-8.598 14.68-15.728 13.421-15.728-1.048 0-8.179 6.081-15.519 13.631s-14.469 13.631-15.728 13.631-10.066-7.969-19.712-17.616c-12.582-12.582-17.196-18.664-16.147-21.181 0.839-2.726 0.419-3.145-2.726-2.097-2.306 0.629-4.614 0.209-5.453-1.048-0.629-1.048-2.306-2.097-3.565-2.097s-0.839 1.678 1.048 3.775c3.145 3.565 2.306 4.823-14.889 22.019-10.066 10.066-19.293 18.244-20.342 18.244s-10.276-8.179-20.342-18.244c-17.196-17.196-18.035-18.455-14.889-22.019 3.775-4.194 0.839-5.243-3.145-1.258-1.887 1.887-3.145 1.887-5.033 0-3.984-3.984-6.081-2.936-3.356 1.678 2.517 3.775 0.839 5.872-15.099 22.019-9.646 9.857-18.664 17.825-19.922 17.825s-8.807-6.501-16.777-14.68c-7.969-7.969-14.889-14.050-15.519-13.421-0.629 0.419 6.081 7.969 14.469 16.567l15.728 15.728-38.795 38.795-38.795-38.795 11.534-11.534c13.841-14.050 12.163-15.308-2.306-1.678-9.227 8.598-11.115 9.437-14.68 7.34-5.872-3.775-7.13-2.936-2.936 1.678 3.984 4.404 3.775 4.614-15.308 23.697l-19.293 19.083-8.388-8.179c-4.614-4.404-8.388-7.13-8.388-6.081 0 1.258 2.936 4.823 6.291 8.179 3.565 3.356 6.291 6.92 6.291 8.179 0 2.936-33.972 36.908-36.699 36.908-1.258 0-5.453-3.356-9.437-7.34s-7.969-7.34-9.227-7.34c-1.258 0 2.097 4.194 7.13 9.437l9.437 9.437-38.586 38.586-6.501-6.081c-3.356-3.356-6.71-5.453-7.34-4.823-0.629 0.419 1.258 3.145 4.194 5.872s5.243 5.872 5.243 7.13c0 1.258-9.018 11.324-19.922 22.229-19.712 19.712-22.229 23.068-17.406 23.068 3.145 0 37.328 33.553 37.328 36.699 0 1.258-8.388 10.485-18.455 20.551l-18.455 18.244-8.179-8.388c-4.404-4.614-9.227-8.388-10.276-8.388-1.258 0 2.097 4.194 7.13 9.437l9.227 9.437-11.324 11.534c-6.291 6.291-10.905 11.954-10.276 12.582 0.629 0.419 5.662-3.775 11.324-9.437 5.662-5.872 11.324-10.485 12.373-10.485 2.936 0 36.908 33.763 36.908 36.699 0 1.048-8.179 10.276-18.244 20.342l-18.455 18.455-11.954-11.954c-6.71-6.71-12.163-10.695-12.163-9.018s4.823 7.759 10.485 13.631l10.485 10.695-9.437 9.227c-5.243 5.033-9.437 10.276-9.437 11.324 0 1.258 4.823-2.517 10.485-8.179l10.485-10.485 38.795 38.795-18.873 18.873-18.664 18.873-6.92-6.71c-8.179-7.969-9.227-4.823-1.678 4.194 3.145 3.984 4.404 6.92 3.145 7.759-1.048 0.629-2.097 2.306-2.097 3.565s1.258 1.048 3.356-0.629c2.726-2.306 5.872 0 22.439 16.567l19.293 19.293-10.066 10.066c-5.453 5.453-9.857 10.905-9.857 11.954s5.033-2.936 11.115-9.018l11.115-10.905 19.293 19.503 19.293 19.293-13.631 13.631c-7.549 7.34-13.631 14.469-13.631 15.519 0 1.258 6.71-4.404 14.68-12.373l14.68-14.68 19.293 19.503 19.503 19.293-15.728 15.728c-8.598 8.598-14.68 15.728-13.421 15.728 1.048 0 8.598-6.71 16.567-14.68l14.68-14.68 38.795 38.795-13.002 13.002c-7.13 7.34-12.163 13.211-11.115 13.211s7.34-5.453 14.050-11.954l12.163-12.163 38.586 38.586-6.081 6.501c-3.356 3.356-5.033 6.291-3.984 6.291 1.258 0 4.404-2.306 7.13-5.243l4.823-5.243 13.211 12.582c17.406 16.777 22.229 16.147 5.453-0.629-7.13-7.13-13.002-14.050-13.002-15.099 0-1.258 7.969-10.276 17.825-19.922l17.825-17.825 19.293 19.503 19.503 19.293-16.777 16.777c-9.227 9.227-15.308 16.777-13.631 16.777s9.857-6.92 18.244-15.099l15.308-15.308 18.873 18.873c10.276 10.066 18.244 19.293 17.616 20.342-0.629 0.839 1.468 1.678 4.404 1.678s5.033-0.839 4.404-1.678zM781.95 145.288c13.002-3.145 26.213-16.357 29.359-29.149 6.71-27.052-14.469-54.314-42.151-54.314-24.326 0-41.312 16.777-41.312 40.683 0 23.697 17.196 41.942 42.57 45.087 1.048 0.209 6.081-0.839 11.534-2.306zM281.17 121.591c4.614-2.936 8.388-6.081 8.388-6.92s-3.356-6.71-7.34-13.002l-7.34-11.534 4.614-3.145c2.517-1.678 7.969-5.243 12.373-7.969l7.759-4.614 6.71 11.534c3.565 6.291 7.34 11.954 8.598 12.582 2.097 1.468 18.664-7.13 18.664-9.646 0-0.839-9.018-16.777-20.131-35.231l-20.342-33.763-7.549 4.614c-11.744 6.92-11.744 6.92-3.775 20.342l7.549 12.582-7.759 4.614c-4.194 2.726-9.857 6.081-12.163 7.549-4.404 2.726-5.033 2.306-12.373-9.857-4.194-6.92-7.969-12.582-8.598-12.582-2.517 0-17.825 10.905-17.196 12.373 1.468 3.775 40.054 67.316 40.683 67.316s4.614-2.306 9.227-5.243zM680.871 71.891c-0.629-10.695-1.678-30.618-2.517-44.248-1.258-24.326-1.468-24.745-6.92-27.052-13.211-5.243-14.469-4.404-44.877 27.682-15.728 16.777-28.73 31.037-28.73 31.666s5.033 2.726 11.115 4.614l10.905 3.565 4.823-5.662 5.033-5.453 10.695 3.775c16.986 5.872 18.035 6.71 18.664 14.889 0.629 6.92 1.468 7.969 10.066 11.324 5.243 2.097 10.276 3.775 11.115 3.984 1.048 0.209 1.258-8.598 0.629-19.083zM412.236 64.76c5.662-1.048 7.549-2.306 6.71-4.823-16.567-59.347-16.567-57.459-0.839-60.186l8.179-1.258-1.258-8.807c-0.839-4.614-2.097-9.227-2.936-9.857-1.468-1.468-64.59 15.308-66.896 17.825-0.629 0.629-0.209 5.033 1.258 9.646 2.726 9.018 3.984 9.227 18.873 3.775 2.726-1.048 5.662-1.048 6.501-0.209s4.614 13.421 8.388 27.891c7.549 29.569 7.759 29.988 11.534 28.52 1.678-0.629 6.291-1.678 10.485-2.517zM542.045 50.5c8.388-3.565 15.308-11.954 17.825-22.019 1.048-4.194 2.306-18.035 2.726-31.037l0.839-23.487-10.066-1.258c-5.662-0.839-10.695-1.048-11.115-0.629-0.629 0.419-1.678 12.792-2.726 27.471-1.258 19.293-2.726 27.682-5.033 29.988-4.404 4.614-15.519 4.404-20.761-0.419-4.194-3.775-4.404-5.662-3.565-30.618 0.839-29.569 1.258-28.94-14.26-28.94-6.501 0-6.501 0.209-7.969 12.792-4.194 40.893 0.209 58.718 16.147 66.687 10.276 5.243 27.471 5.872 37.957 1.468zM490.038 781.749c-10.485-10.695-20.131-19.503-21.6-19.503s-2.726-1.258-2.726-2.517c0-3.145-35.65-39.425-38.795-39.425s-38.795 36.28-38.795 39.425c0 1.258-0.839 2.517-2.097 2.517-1.048 0-2.097-1.258-2.097-2.726 0-3.356-35.86-39.215-39.425-39.215-1.258 0-2.517-1.258-2.517-2.726 0-3.356-33.763-37.119-37.328-37.119-1.258 0-2.517-1.258-2.517-2.517 0-3.565-35.86-39.425-39.215-39.425-1.468 0-2.726-1.258-2.726-2.726 0-3.356-33.763-37.119-37.328-37.119-1.258 0-2.517-1.258-2.517-2.726 0-3.356-35.86-39.215-39.425-39.215-1.258 0-2.517-0.839-2.517-2.097 0-1.048 1.258-2.097 2.517-2.097 3.145 0 39.425-35.65 39.425-38.795s-36.28-38.795-39.425-38.795c-1.258 0-2.517-0.839-2.517-2.097 0-1.048 1.258-2.097 2.726-2.097 3.145 0 39.215-35.86 39.215-38.795 0-3.145-36.28-38.795-39.425-38.795-1.258 0-2.517-0.839-2.517-2.097 0-1.048 1.258-2.097 2.517-2.097 3.145 0 39.425-35.65 39.425-38.795 0-1.048-8.807-10.695-19.293-21.39l-19.503-19.503 19.503-19.503c10.485-10.695 19.293-20.551 19.293-22.019 0-1.258 1.258-2.517 2.726-2.517 3.356 0 37.119-33.763 37.119-37.328 0-1.258 1.258-2.517 2.726-2.517 3.356 0 39.215-35.86 39.215-39.425 0-1.258 1.258-2.517 2.726-2.517 3.356 0 37.119-33.763 37.119-37.328 0-1.258 1.468-2.517 3.145-2.517s3.145 1.258 3.145 2.726c0 3.775 33.972 37.119 37.747 37.119s37.747-33.553 37.747-37.328c0-1.258 1.258-2.517 2.726-2.517 3.356 0 39.215-35.86 39.215-39.425 0-1.258 1.048-2.517 2.097-2.517 1.258 0 2.097 1.258 2.097 2.517 0 3.145 35.65 39.425 38.795 39.425s38.795-36.28 38.795-39.425c0-1.258 1.048-2.517 2.097-2.517 1.258 0 2.097 1.258 2.097 2.517 0 3.565 35.86 39.425 39.215 39.425 1.468 0 2.726 1.258 2.726 2.726 0 3.775 33.972 37.119 37.747 37.119s37.747-33.553 37.747-37.328c0-1.258 1.468-2.517 3.145-2.517s3.145 1.258 3.145 2.726c0 3.356 33.763 37.119 37.328 37.119 1.258 0 2.517 1.258 2.517 2.517 0 3.565 35.86 39.425 39.215 39.425 1.468 0 2.726 1.258 2.726 2.726 0 3.356 33.763 37.119 37.328 37.119 1.258 0 2.517 1.468 2.517 3.145s-1.258 3.145-2.726 3.145c-3.775 0-37.119 33.972-37.119 37.747s33.553 37.747 37.328 37.747c1.258 0 2.517 1.258 2.517 2.726 0 3.356 35.86 39.215 39.425 39.215 1.258 0 2.517 1.048 2.517 2.097 0 1.258-1.258 2.097-2.517 2.097-3.145 0-39.425 35.65-39.425 38.795s36.28 38.795 39.425 38.795c1.258 0 2.517 1.048 2.517 2.097 0 1.258-1.258 2.097-2.726 2.097-3.145 0-39.215 35.86-39.215 38.795 0 3.145 36.28 38.795 39.425 38.795 1.258 0 2.517 1.048 2.517 2.097 0 1.258-1.258 2.097-2.517 2.097-3.565 0-39.425 35.86-39.425 39.215 0 1.468-1.258 2.726-2.726 2.726-3.356 0-37.119 33.763-37.119 37.328 0 1.258-1.258 2.517-2.726 2.517-3.356 0-39.215 35.86-39.215 39.425 0 1.258-1.258 2.517-2.726 2.517-3.356 0-37.119 33.763-37.119 37.328 0 1.258-1.258 2.517-2.726 2.517-3.356 0-39.215 35.86-39.215 39.425 0 1.258-0.839 2.517-2.097 2.517-1.048 0-2.097-1.258-2.097-2.517 0-3.145-35.65-39.425-38.795-39.425s-38.795 36.28-38.795 39.425c0 1.258-1.258 2.517-2.726 2.517s-11.324 8.807-21.6 19.503l-18.664 19.293-18.664-19.293zM529.253 740.855c-10.066-10.276-19.293-18.455-20.551-18.455-1.048 0-10.276 8.179-20.342 18.244l-18.455 18.455 38.795 38.795 38.795-38.795-18.244-18.244zM405.946 737.081l18.873-18.873-38.795-38.795-38.795 38.795 18.873 18.873c10.276 10.276 19.293 18.873 19.922 18.873s9.646-8.598 19.922-18.873zM487.731 737.081l18.873-18.873-38.795-38.795-38.795 38.795 18.873 18.873c10.276 10.276 19.293 18.873 19.922 18.873s9.646-8.598 19.922-18.873zM569.517 737.081l18.873-18.873-38.795-38.795-38.795 38.795 18.873 18.873c10.276 10.276 19.293 18.873 19.922 18.873s9.646-8.598 19.922-18.873zM651.302 737.081l18.873-18.873-38.795-38.795-38.795 38.795 18.873 18.873c10.276 10.276 19.293 18.873 19.922 18.873s9.646-8.598 19.922-18.873zM365.682 659.070c-10.066-10.276-19.293-18.455-20.551-18.455-1.048 0-10.276 8.179-20.342 18.244l-18.455 18.455 38.795 38.795 38.795-38.795-18.244-18.244zM460.888 672.281l-4.614-5.243 5.662 3.565c3.145 1.887 7.34 2.936 9.437 2.097 3.145-1.048 3.356-0.839 1.048 1.678-2.097 2.306 0.839 6.291 16.777 22.229l19.503 19.503 19.293-19.293c16.147-16.147 18.873-19.712 16.777-22.439-2.097-2.517-1.887-2.936 1.258-1.678 2.097 0.839 6.081 0 9.437-2.097l5.662-3.565-4.614 5.243-4.823 5.243 19.503 19.293 19.293 19.293 38.795-38.795-18.873-18.873c-10.276-10.276-18.873-19.712-18.873-20.97 0-1.048 9.018 6.92 19.922 17.825l19.922 19.922 19.293-19.503 19.503-19.293-38.795-38.795-18.873 18.873c-10.276 10.276-18.873 18.035-18.873 16.986s7.969-10.066 17.825-19.922l17.825-18.244-8.388-8.179c-4.614-4.614-8.388-9.227-8.388-10.276 0-1.258 4.194 2.097 9.437 7.13l9.437 9.437 38.795-38.795-18.873-18.873c-10.276-10.276-17.825-18.873-16.777-18.873 1.258 0 10.276 7.969 19.922 17.825l17.825 17.825 38.795-38.795-38.795-38.795-18.244 18.244c-10.276 10.066-18.455 17.406-18.455 16.357s7.759-9.857 17.196-19.293l17.196-17.406-8.179-8.388c-4.404-4.614-7.549-8.807-7.13-9.437 0.629-0.419 4.823 2.726 9.227 7.34l8.179 8.388 19.503-19.293 19.503-19.503-19.293-19.293c-10.695-10.695-18.455-19.503-17.406-19.503s10.276 8.179 20.342 18.244l18.455 18.455 38.795-38.795-38.795-38.795-18.873 18.873c-10.276 10.276-18.873 18.035-18.873 16.986s7.969-10.066 17.825-19.922l17.825-18.244-8.388-8.179c-4.614-4.614-8.388-9.227-8.388-10.276 0-1.258 4.194 2.097 9.437 7.13l9.437 9.437 38.795-38.795-19.503-19.503c-10.485-10.695-19.293-20.342-19.293-21.39s8.807-10.695 19.293-21.39l19.503-19.503-19.503-19.293-19.293-19.503-13.211 13.211c-7.13 7.13-14.050 13.002-15.099 13.002s4.404-6.291 12.163-14.26l14.050-14.050-38.795-38.795-19.503 19.503-19.293 19.503 8.388 8.179c4.614 4.404 7.759 8.598 7.34 9.227-0.629 0.419-4.823-2.726-9.437-7.13l-8.388-8.179-19.293 19.083c-18.455 18.455-19.083 19.503-15.728 23.278 5.243 5.872 4.404 8.179-1.258 2.936l-4.823-4.614-19.293 19.503-19.293 19.293 13.631 13.631c7.549 7.34 13.631 14.469 13.631 15.519 0 1.258-6.71-4.404-14.68-12.373l-14.68-14.68-38.586 38.586 6.081 6.501c7.34 7.549 4.614 8.598-3.145 1.048l-5.453-5.243-5.033 5.243c-2.726 2.936-5.872 5.243-7.13 5.243-1.048 0 0.629-2.936 3.984-6.291l6.081-6.501-38.586-38.586-12.582 12.582c-6.92 6.92-12.582 11.534-12.582 10.276 0-1.048 5.243-7.13 11.534-13.421l11.534-11.324-19.293-19.503c-15.938-15.938-19.712-18.873-22.229-16.777s-2.936 1.678-1.678-1.678c1.048-3.356-2.726-8.179-17.616-23.068l-18.873-18.664-8.388 8.179c-4.614 4.404-8.807 7.549-9.437 7.13-0.419-0.629 2.726-4.823 7.34-9.227l8.388-8.179-19.293-19.503-19.503-19.503-38.795 38.795 15.099 15.099c8.388 8.388 14.26 15.308 13.211 15.308s-8.388-6.291-16.147-14.050l-14.26-14.26-38.795 38.795 19.293 19.293c16.567 16.567 19.712 18.873 22.439 16.567 2.097-1.678 3.356-1.887 3.356-0.629s-1.048 2.936-2.306 3.775c-1.678 0.839-1.678 1.887 0 3.565 3.565 3.565 2.726 6.501-1.048 3.356-2.726-2.306-5.872 0-22.439 16.567l-19.293 19.293 38.795 38.795 11.534-11.534c6.291-6.291 11.534-10.485 11.534-9.227 0 1.048-4.823 6.71-10.485 12.373l-10.485 10.276 20.97 21.181c11.534 11.534 20.97 21.809 20.97 22.648 0 1.048-0.839 1.258-1.678 0.629-1.048-0.629-10.485 7.759-20.97 18.244l-19.293 19.293 19.503 19.503 19.503 19.293 9.227-9.437c5.033-5.243 10.276-9.437 11.324-9.437 1.258 0-2.517 4.823-8.179 10.485l-10.276 10.485 19.293 19.503c10.695 10.695 19.293 20.342 19.293 21.39s-8.807 10.695-19.293 21.39l-19.503 19.503 38.795 38.795 9.437-9.437c5.243-5.033 9.437-8.388 9.437-7.13 0 1.048-3.775 5.662-8.388 10.276l-8.388 8.179 17.825 18.244c9.857 9.857 17.825 18.873 17.825 19.922s-8.598-6.71-18.873-16.986l-18.873-18.873-38.795 38.795 19.503 19.293 19.293 19.503 19.922-19.922c10.905-10.905 19.922-18.873 19.922-17.825 0 1.258-8.598 10.695-18.873 20.97l-18.873 18.873 38.795 38.795 19.293-19.293 19.503-19.293-4.823-5.243zM692.825 659.070c-10.066-10.276-19.293-18.455-20.551-18.455-2.726 0-36.699 33.972-36.699 36.699 0 1.048 8.179 10.276 18.244 20.342l18.455 18.455 38.795-38.795-18.244-18.244zM324.159 655.086l18.873-18.873-38.795-38.795-38.795 38.795 18.873 18.873c10.276 10.276 19.293 18.873 19.922 18.873s9.646-8.388 19.922-18.873zM733.089 655.086l18.873-18.873-38.795-38.795-38.795 38.795 18.873 18.873c10.276 10.276 19.293 18.873 19.922 18.873s9.646-8.388 19.922-18.873zM300.044 595.319c0-2.726-33.972-36.699-36.699-36.699-1.048 0-10.276 8.179-20.342 18.244l-18.455 18.455 38.795 38.795 18.244-18.244c10.276-10.066 18.455-19.083 18.455-20.551zM365.682 577.284c-10.066-10.276-19.293-18.455-20.551-18.455-1.048 0-10.276 8.179-20.342 18.244l-18.455 18.455 38.795 38.795 38.795-38.795-18.244-18.244zM692.825 577.284c-10.066-10.276-19.293-18.455-20.551-18.455-1.048 0-10.276 8.179-20.342 18.244l-18.455 18.455 38.795 38.795 38.795-38.795-18.244-18.244zM774.61 577.284c-10.066-10.276-19.293-18.455-20.551-18.455-2.726 0-36.699 33.972-36.699 36.699 0 1.048 8.179 10.276 18.244 20.342l18.455 18.455 38.795-38.795-18.244-18.244zM242.374 573.3l18.873-18.873-38.795-38.795-38.795 38.795 18.873 18.873c10.276 10.276 19.293 18.873 19.922 18.873s9.646-8.388 19.922-18.873zM324.159 573.3l18.873-18.873-38.795-38.795-38.795 38.795 18.873 18.873c10.276 10.276 19.293 18.873 19.922 18.873s9.646-8.388 19.922-18.873zM733.089 573.3l18.873-18.873-38.795-38.795-38.795 38.795 18.873 18.873c10.276 10.276 19.293 18.873 19.922 18.873s9.646-8.388 19.922-18.873zM814.874 573.3l18.873-18.873-38.795-38.795-38.795 38.795 18.873 18.873c10.276 10.276 19.293 18.873 19.922 18.873s9.646-8.388 19.922-18.873zM282.847 494.451l-19.503-19.503-38.795 38.795 38.795 38.795 38.795-38.795-19.293-19.293zM365.682 495.499c-10.066-10.276-19.293-18.455-20.551-18.455-1.048 0-10.276 8.179-20.342 18.244l-18.455 18.455 38.795 38.795 38.795-38.795-18.244-18.244zM774.61 495.499c-10.066-10.276-19.293-18.455-20.551-18.455-2.726 0-36.699 33.972-36.699 36.699 0 1.048 8.179 10.276 18.244 20.342l18.455 18.455 38.795-38.795-18.244-18.244zM242.374 491.514l18.873-18.873-38.795-38.795-38.795 38.795 18.873 18.873c10.276 10.276 19.293 18.873 19.922 18.873s9.646-8.388 19.922-18.873zM324.159 491.514l18.873-18.873-38.795-38.795-38.795 38.795 18.873 18.873c10.276 10.276 19.293 18.873 19.922 18.873s9.646-8.388 19.922-18.873zM733.089 491.514l18.873-18.873-38.795-38.795-38.795 38.795 18.873 18.873c10.276 10.276 19.293 18.873 19.922 18.873s9.646-8.388 19.922-18.873zM814.874 491.514l18.873-18.873-38.795-38.795-38.795 38.795 18.873 18.873c10.276 10.276 19.293 18.873 19.922 18.873s9.646-8.388 19.922-18.873zM282.847 412.664l-19.503-19.503-38.795 38.795 38.795 38.795 38.795-38.795-19.293-19.293zM773.562 412.664l-19.503-19.503-18.244 18.244c-10.276 10.066-18.455 19.293-18.455 20.551 0 1.048 8.179 10.276 18.244 20.342l18.455 18.455 38.795-38.795-19.293-19.293zM242.374 409.728l18.873-18.873-38.795-38.795-38.795 38.795 18.873 18.873c10.276 10.276 19.293 18.873 19.922 18.873s9.646-8.598 19.922-18.873zM324.159 409.728l18.873-18.873-38.795-38.795-38.795 38.795 18.873 18.873c10.276 10.276 19.293 18.873 19.922 18.873s9.646-8.598 19.922-18.873zM814.874 409.728l18.873-18.873-38.795-38.795-38.795 38.795 18.873 18.873c10.276 10.276 19.293 18.873 19.922 18.873s9.646-8.598 19.922-18.873zM282.847 330.879l-19.503-19.503-38.795 38.795 38.795 38.795 38.795-38.795-19.293-19.293zM773.562 330.879l-19.503-19.503-38.795 38.795 38.795 38.795 38.795-38.795-19.293-19.293zM242.374 327.943l18.873-18.873-38.795-38.795-38.795 38.795 18.873 18.873c10.276 10.276 19.293 18.873 19.922 18.873s9.646-8.598 19.922-18.873zM282.847 249.093l-19.503-19.503-38.795 38.795 38.795 38.795 38.795-38.795-19.293-19.293zM528.205 249.093l-19.503-19.503-38.795 38.795 38.795 38.795 38.795-38.795-19.293-19.293zM773.562 249.093l-19.503-19.503-38.795 38.795 38.795 38.795 38.795-38.795-19.293-19.293zM487.731 246.157l18.873-18.873-38.795-38.795-38.795 38.795 18.873 18.873c10.276 10.276 19.293 18.873 19.922 18.873s9.646-8.598 19.922-18.873zM569.517 246.157l18.873-18.873-38.795-38.795-38.795 38.795 18.873 18.873c10.276 10.276 19.293 18.873 19.922 18.873s9.646-8.598 19.922-18.873zM446.419 167.097l-19.503-19.503-38.795 38.795 38.795 38.795 38.795-38.795-19.293-19.293zM528.205 167.097l-19.503-19.503-38.795 38.795 38.795 38.795 38.795-38.795-19.293-19.293zM609.99 167.097l-19.503-19.503-38.795 38.795 38.795 38.795 38.795-38.795-19.293-19.293zM487.731 164.371l18.873-18.873-38.795-38.795-38.795 38.795 18.873 18.873c10.276 10.276 19.293 18.873 19.922 18.873s9.646-8.598 19.922-18.873zM569.517 164.371l18.873-18.873-38.795-38.795-38.795 38.795 18.873 18.873c10.276 10.276 19.293 18.873 19.922 18.873s9.646-8.598 19.922-18.873zM458.162 649.214c-4.614-2.097-11.744-7.759-15.728-12.582-6.92-7.759-12.373-24.117-64.59-189.365-36.28-115.548-57.040-183.913-56.831-189.365 0.209-17.616 13.631-36.489 30.407-42.99 10.066-3.984 28.73-3.145 38.167 1.678 9.227 4.823 20.342 16.357 22.858 23.907 1.048 2.726 7.34 23.278 14.469 45.716l12.792 40.893 69.413 0.629 69.622 0.419 14.889-45.716c15.938-49.701 20.342-57.67 36.28-65.848 11.744-5.872 31.037-5.872 42.781 0 15.519 7.969 25.794 24.956 25.794 42.99 0 6.71-114.5 356.502-120.582 368.455-4.194 8.179-13.841 16.986-23.068 21.181-7.13 3.356-14.050 3.984-48.232 3.984s-41.103-0.629-48.443-3.984z" />
<glyph unicode="&#xe900;" glyph-name="cf-folder32" d="M976.384 614.4h-928.768c-47.104 0-49.504-22.944-46.912-51.008l42.24-461.216c2.56-28.064 9.216-51.008 56.256-51.008h825.6c48.032 0 53.696 22.944 56.256 51.008l42.24 461.216c2.496 28.064 0.192 51.008-46.944 51.008zM942.272 727.040c-5.632 22.528-33.536 40.96-61.888 40.96h-348.864c-28.416 0-68.032 16.224-88.16 36.16l-30.528 30.112c-20.064 19.904-59.744 36.16-88.128 36.16h-166.72c-28.352 0-54.176-22.88-57.28-50.88l-14.944-133.44h866.88l-10.336 40.96z" />
<glyph unicode="&#xe901;" glyph-name="file3" d="M298.667 490.667h42.667v42.667h-42.667v-42.667zM298.667 362.667h42.667v42.667h-42.667v-42.667zM298.667 618.667h42.667v42.667h-42.667v-42.667zM298.667 234.667h42.667v42.667h-42.667v-42.667zM298.667 106.667h42.667v42.667h-42.667v-42.667zM384 362.667h341.333v42.667h-341.333v-42.667zM384 618.667h341.333v42.667h-341.333v-42.667zM722.688 960h-594.688v-1024h768v853.333l-173.312 170.667zM810.667 23.979h-597.333v850.688h426.667v-125.355h170.667v-725.333zM384 234.667h341.333v42.667h-341.333v-42.667zM384 490.667h341.333v42.667h-341.333v-42.667zM384 106.667h341.333v42.667h-341.333v-42.667z" />
<glyph unicode="&#xe902;" glyph-name="ldap" d="M1024 237.728v-182.848q0-22.848-16-38.848t-38.848-16h-182.848q-22.848 0-38.848 16t-16 38.848v182.848q0 22.848 16 38.848t38.848 16h54.848v109.728h-292.576v-109.728h54.848q22.848 0 38.848-16t16-38.848v-182.848q0-22.848-16-38.848t-38.848-16h-182.848q-22.848 0-38.848 16t-16 38.848v182.848q0 22.848 16 38.848t38.848 16h54.848v109.728h-292.576v-109.728h54.848q22.848 0 38.848-16t16-38.848v-182.848q0-22.848-16-38.848t-38.848-16h-182.848q-22.848 0-38.848 16t-16 38.848v182.848q0 22.848 16 38.848t38.848 16h54.848v109.728q0 29.728 21.728 51.424t51.424 21.728h292.576v109.728h-54.848q-22.848 0-38.848 16t-16 38.848v182.848q0 22.848 16 38.848t38.848 16h182.848q22.848 0 38.848-16t16-38.848v-182.848q0-22.848-16-38.848t-38.848-16h-54.848v-109.728h292.576q29.728 0 51.424-21.728t21.728-51.424v-109.728h54.848q22.848 0 38.848-16t16-38.848z" />
<glyph unicode="&#xe903;" glyph-name="key" d="M448 320h-96v1.952c-10.56-1.088-21.152-1.952-32-1.952-176.704 0-320 143.264-320 320s143.296 320 320 320 320-143.264 320-320v-128h32v-32h32v-32h32v-32h32v-32h32v-32h32v-32h32v-32h32v-32h32v-32h32v-32h32v-32h32v-192c0-17.696-14.304-32-32-32h-128c-17.696 0-32 14.304-32 32v128h-160c-17.664 0-32 14.304-32 32v128h-160zM256 832c-70.688 0-128-57.312-128-128s57.312-128 128-128 128 57.312 128 128-57.312 128-128 128z" />
<glyph unicode="&#xe904;" glyph-name="cloud" horiz-adv-x="1120" d="M903.9 76.681c0 0 179.011-0.195 204.144 174.958 11.967 191.529-173.044 229.277-173.044 229.277s21.047 283.532-238.714 315.864c-222.629 22.733-290.375-184.168-290.375-184.168s-67.064 64.47-158.029 11.804c-81.431-50.266-67.032-142.301-67.032-142.301s-180.86-35.154-180.86-219.484c4.054-184.103 196.426-185.951 196.426-185.951z" />
<glyph unicode="&#xe905;" glyph-name="desktop" d="M0 896v-640h1024v640h-1024zM960 320h-896v512h896v-512zM672 192h-320l-32-128-64-64h512l-64 64z" />
<glyph unicode="&#xe906;" glyph-name="browser" d="M512 960c-282.77 0-512-229.23-512-512s229.23-512 512-512 512 229.23 512 512-229.23 512-512 512zM512-0.002c-62.958 0-122.872 13.012-177.23 36.452l233.148 262.29c5.206 5.858 8.082 13.422 8.082 21.26v96c0 17.674-14.326 32-32 32-112.99 0-232.204 117.462-233.374 118.626-6 6.002-14.14 9.374-22.626 9.374h-128c-17.672 0-32-14.328-32-32v-192c0-12.122 6.848-23.202 17.69-28.622l110.31-55.156v-187.886c-116.052 80.956-192 215.432-192 367.664 0 68.714 15.49 133.806 43.138 192h116.862c8.488 0 16.626 3.372 22.628 9.372l128 128c6 6.002 9.372 14.14 9.372 22.628v77.412c40.562 12.074 83.518 18.588 128 18.588 70.406 0 137.004-16.26 196.282-45.2-4.144-3.502-8.176-7.164-12.046-11.036-36.266-36.264-56.236-84.478-56.236-135.764s19.97-99.5 56.236-135.764c36.434-36.432 85.218-56.264 135.634-56.26 3.166 0 6.342 0.080 9.518 0.236 13.814-51.802 38.752-186.656-8.404-372.334-0.444-1.744-0.696-3.488-0.842-5.224-81.324-83.080-194.7-134.656-320.142-134.656z" />
<glyph unicode="&#xe907;" glyph-name="apple" d="M791.498 415.908c-1.294 129.682 105.758 191.876 110.542 194.966-60.152 88.020-153.85 100.078-187.242 101.472-79.742 8.074-155.596-46.948-196.066-46.948-40.368 0-102.818 45.754-168.952 44.552-86.916-1.292-167.058-50.538-211.812-128.38-90.304-156.698-23.126-388.84 64.89-515.926 43.008-62.204 94.292-132.076 161.626-129.58 64.842 2.588 89.362 41.958 167.756 41.958s100.428-41.958 169.050-40.67c69.774 1.296 113.982 63.398 156.692 125.796 49.39 72.168 69.726 142.038 70.924 145.626-1.548 0.706-136.060 52.236-137.408 207.134zM662.562 796.478c35.738 43.358 59.86 103.512 53.28 163.522-51.478-2.096-113.878-34.29-150.81-77.55-33.142-38.376-62.148-99.626-54.374-158.436 57.466-4.484 116.128 29.204 151.904 72.464z" />
<glyph unicode="&#xe908;" glyph-name="android" d="M896 576c-35.2 0-64-28.8-64-64v-256c0-35.2 28.8-64 64-64s64 28.8 64 64v256c0 35.2-28.8 64-64 64zM128 576c-35.2 0-64-28.8-64-64v-256c0-35.2 28.8-64 64-64s64 28.8 64 64v256c0 35.2-28.802 64-64 64zM224 224c0-53.020 42.98-96 96-96v0-128c0-35.2 28.8-64 64-64s64 28.8 64 64v128h128v-128c0-35.2 28.8-64 64-64s64 28.8 64 64v128c53.020 0 96 42.98 96 96v352h-576v-352zM798.216 639.998c-9.716 87.884-59.004 163.792-129.62 209.646l32.024 64.046c7.904 15.806 1.496 35.028-14.31 42.932s-35.030 1.496-42.932-14.312l-32.142-64.286-8.35 3.316c-28.568 9.502-59.122 14.66-90.886 14.66-31.762 0-62.316-5.158-90.888-14.656l-8.348-3.316-32.142 64.282c-7.904 15.808-27.128 22.212-42.932 14.312-15.808-7.904-22.214-27.126-14.312-42.932l32.022-64.046c-70.616-45.852-119.904-121.762-129.622-209.644v-32h574.222v31.998h-1.784zM416 704c-17.674 0-32 14.328-32 32 0 17.648 14.288 31.958 31.93 31.996 0.032 0 0.062-0.002 0.094-0.002 0.018 0 0.036 0.002 0.052 0.002 17.638-0.042 31.924-14.35 31.924-31.996 0-17.672-14.326-32-32-32zM608 704c-17.674 0-32 14.328-32 32 0 17.646 14.286 31.954 31.924 31.996 0.016 0 0.034-0.002 0.050-0.002 0.032 0 0.064 0.002 0.096 0.002 17.64-0.038 31.93-14.348 31.93-31.996 0-17.672-14.326-32-32-32z" />
<glyph unicode="&#xe909;" glyph-name="audit" d="M0 128h1024v-128h-1024zM128 384h128v-192h-128zM320 640h128v-448h-128zM512 448h128v-256h-128zM704 832h128v-640h-128z" />
<glyph unicode="&#xe90a;" glyph-name="license" d="M953.159 939.566h-882.329c-39.194 0-71.076-31.875-71.076-71.078v-555.884c0-39.192 31.882-71.074 71.076-71.074h544.227c-8.442 21.611-13.644 45.388-14.948 70.454l-530.304 0.62 1.025 556.914 883.365-1.029v-555.884c0-0.582-0.48-1.027-1.033-1.027l-31.844 0.040c-1.33-24.935-6.496-48.573-14.904-70.085h46.748c39.207 0 71.087 31.884 71.087 71.074v555.882c-0.002 39.203-31.88 71.078-71.089 71.078zM760.728 164.668c69.643 0 126.088 71.31 126.088 159.294 0 87.97-56.441 159.283-126.088 159.283-69.635 0-126.075-71.312-126.075-159.283 0-87.983 56.441-159.294 126.075-159.294zM169.065 713.139h312.287c19.362 0 35.029 15.659 35.029 35.020 0 19.358-15.669 35.027-35.029 35.027h-312.287c-19.358 0-35.018-15.669-35.018-35.027 0-19.362 15.659-35.020 35.018-35.020zM866.631 590.539c0 19.362-15.671 35.035-35.029 35.035h-662.537c-19.358 0-35.018-15.673-35.018-35.035 0-19.358 15.659-35.016 35.018-35.016h662.537c19.358 0 35.029 15.656 35.029 35.016zM169.065 467.958c-19.358 0-35.018-15.669-35.018-35.018 0-19.362 15.659-35.031 35.018-35.031h312.287c19.362 0 35.029 15.669 35.029 35.031 0 19.351-15.669 35.018-35.029 35.018h-312.287zM867.171 178.382c-0.136-0.171-48.64-56.103-116.361-48.193l84.212-170.335c1.025-2.113 3.187-3.423 5.506-3.423 0.144 0 0.28 0 0.449 0 2.468 0.2 4.581 1.844 5.369 4.241l21.243 65.217c0.505 1.545 1.643 2.854 3.106 3.608 0.854 0.405 1.81 0.605 2.702 0.605 0.685 0 1.372-0.098 2.059-0.334l64.681-22.718c0.676-0.234 1.36-0.34 2.046-0.34 1.746 0 3.389 0.726 4.583 2.050 1.677 1.879 2.013 4.552 0.92 6.773l-80.517 162.847zM654.669 178.077c-0.102 0.098-0.246 0.2-0.386 0.305l-80.517-162.809c-1.090-2.259-0.741-4.929 0.935-6.811 1.193-1.326 2.866-2.050 4.614-2.050 0.687 0 1.36 0.106 2.013 0.34l64.683 22.718c0.685 0.236 1.374 0.334 2.050 0.334 0.922 0 1.846-0.2 2.702-0.605 1.474-0.751 2.599-2.061 3.117-3.635l21.241-65.19c0.789-2.366 2.904-4.042 5.371-4.205 0.134 0 0.303 0 0.438 0 2.33 0 4.479 1.305 5.517 3.385l54.718 110.686-34.985 70.769c-0.138 0.071-30.636 12.286-51.514 36.77z" />
<glyph unicode="&#xe90b;" glyph-name="sms" d="M902.449 240.049l-33.083-33.083-245.366 210.314-107.52-92.16-107.52 92.16-245.366-210.314-33.083 33.083 242.609 207.951-242.609 207.951 33.083 33.083 352.886-302.474 352.886 302.474 33.083-33.083-242.609-207.951 242.609-207.951zM86.547 775.68c-45.325 0-82.067-36.639-82.067-81.677v-492.006c0-45.108 36.444-81.677 82.067-81.677h859.866c45.325 0 82.067 36.639 82.067 81.677v492.006c0 45.108-36.444 81.677-82.067 81.677h-859.866z" />
<glyph unicode="&#xe90c;" glyph-name="left-dark" d="M770.249 922.286c38.579-37.715 41.606-90.221 0-136.325l-324.119-338.047 324.119-338.047c41.606-46.105 38.579-98.698 0-136.154-38.494-37.715-103.541-35.294-139.7 0-36.158 35.119-389.427 406.123-389.427 406.123-19.291 18.771-28.978 43.423-28.978 68.076s9.687 49.305 28.978 68.249c0 0 353.272 370.829 389.427 406.123 36.158 35.379 101.206 37.715 139.7 0z" />
<glyph unicode="&#xe90d;" glyph-name="right-dark" d="M393.451 922.284c36.158-35.293 389.427-406.122 389.427-406.122 19.29-18.944 28.978-43.597 28.978-68.25s-9.687-49.306-28.978-68.076c0 0-353.271-371.003-389.427-406.122-36.158-35.293-101.206-37.714-139.699 0-38.579 37.542-41.607 90.047 0 136.153l324.119 338.047-324.119 338.047c-41.607 46.106-38.579 98.697 0 136.325 38.493 37.714 103.541 35.379 139.699 0z" />
<glyph unicode="&#xe90e;" glyph-name="left-thin" d="M771.868 9.835c15.831-16.066 15.831-41.879 0-57.828s-41.406-16.007-57.237 0l-462.501 467.108c-15.831 15.948-15.831 41.76 0 57.828l462.501 467.108c15.831 15.948 41.406 15.948 57.237 0 15.831-16.007 15.831-41.879 0-57.828l-421.803-438.224 421.803-438.165z" />
<glyph unicode="&#xe90f;" glyph-name="right-thin" d="M673.933 447.941l-421.803 438.283c-15.831 15.948-15.831 41.76 0 57.828 15.831 15.948 41.406 15.948 57.237 0l462.501-467.108c15.831-16.007 15.831-41.879 0-57.828l-462.501-467.108c-15.831-16.007-41.406-15.948-57.237 0-15.831 15.889-15.831 41.76 0 57.828l421.803 438.105z" />
<glyph unicode="&#xea42;" glyph-name="circle-right" d="M512 960c-282.77 0-512-229.23-512-512s229.23-512 512-512 512 229.23 512 512-229.23 512-512 512zM512 32c-229.75 0-416 186.25-416 416s186.25 416 416 416 416-186.25 416-416-186.25-416-416-416zM354.744 253.256l90.512-90.512 285.254 285.256-285.256 285.254-90.508-90.508 194.744-194.746z" />
<glyph unicode="&#xea44;" glyph-name="circle-left" d="M512-64c282.77 0 512 229.23 512 512s-229.23 512-512 512-512-229.23-512-512 229.23-512 512-512zM512 864c229.75 0 416-186.25 416-416s-186.25-416-416-416-416 186.25-416 416 186.25 416 416 416zM669.256 642.744l-90.512 90.512-285.254-285.256 285.256-285.254 90.508 90.508-194.744 194.746z" />
<glyph unicode="&#xf05d;" glyph-name="check-circle-o" horiz-adv-x="878" d="M669.213 495.444l-241.217-241.217q-10.86-10.86-25.722-10.86t-25.722 10.86l-168.051 168.051q-10.86 10.86-10.86 25.722t10.86 25.722l58.304 58.304q10.86 10.86 25.722 10.86t25.722-10.86l84.026-84.026 157.191 157.191q10.86 10.86 25.722 10.86t25.722-10.86l58.304-58.304q10.86-10.86 10.86-25.722t-10.86-25.722zM749.809 448q0 84.597-41.727 156.048t-113.178 113.178-156.048 41.727-156.048-41.727-113.178-113.178-41.727-156.048 41.727-156.048 113.178-113.178 156.048-41.727 156.048 41.727 113.178 113.178 41.727 156.048zM877.848 448q0-119.466-58.875-220.353t-159.763-159.763-220.353-58.875-220.353 58.875-159.763 159.763-58.875 220.353 58.875 220.353 159.763 159.763 220.353 58.875 220.353-58.875 159.763-159.763 58.875-220.353z" />
<glyph unicode="&#xf05e;" glyph-name="ban" horiz-adv-x="878" d="M749.714 449.714q0 92-49.714 168.571l-430.857-430.286q78.286-50.857 169.714-50.857 63.429 0 120.857 24.857t99.143 66.571 66.286 99.714 24.571 121.429zM178.857 278.857l431.429 430.857q-77.143 52-171.429 52-84.571 0-156-41.714t-113.143-113.714-41.714-156.571q0-92.571 50.857-170.857zM877.714 449.714q0-89.714-34.857-171.429t-93.429-140.571-140-93.714-170.571-34.857-170.571 34.857-140 93.714-93.429 140.571-34.857 171.429 34.857 171.143 93.429 140.286 140 93.714 170.571 34.857 170.571-34.857 140-93.714 93.429-140.286 34.857-171.143z" />
<glyph unicode="&#xf0dc;" glyph-name="sort, unsorted" horiz-adv-x="585" d="M585.143 338.286q0-14.857-10.857-25.714l-256-256q-10.857-10.857-25.714-10.857t-25.714 10.857l-256 256q-10.857 10.857-10.857 25.714t10.857 25.714 25.714 10.857h512q14.857 0 25.714-10.857t10.857-25.714zM585.143 557.714q0-14.857-10.857-25.714t-25.714-10.857h-512q-14.857 0-25.714 10.857t-10.857 25.714 10.857 25.714l256 256q10.857 10.857 25.714 10.857t25.714-10.857l256-256q10.857-10.857 10.857-25.714z" />
<glyph unicode="&#xf0dd;" glyph-name="sort-desc, sort-down" horiz-adv-x="585" d="M585.143 338.286q0-14.857-10.857-25.714l-256-256q-10.857-10.857-25.714-10.857t-25.714 10.857l-256 256q-10.857 10.857-10.857 25.714t10.857 25.714 25.714 10.857h512q14.857 0 25.714-10.857t10.857-25.714z" />
<glyph unicode="&#xf0de;" glyph-name="sort-asc, sort-up" horiz-adv-x="585" d="M585.143 557.714q0-14.857-10.857-25.714t-25.714-10.857h-512q-14.857 0-25.714 10.857t-10.857 25.714 10.857 25.714l256 256q10.857 10.857 25.714 10.857t25.714-10.857l256-256q10.857-10.857 10.857-25.714z" />
</font>
</defs>
</svg>
